<svg width="58" height="29" viewBox="0 0 58 29" fill="none" xmlns="http://www.w3.org/2000/svg">
<path d="M57.5 14.5C57.5 18.2127 54.4773 21.7084 49.2825 24.3058C44.1176 26.8883 36.9473 28.5 29 28.5C21.0527 28.5 13.8824 26.8883 8.71751 24.3058C3.52269 21.7084 0.5 18.2127 0.5 14.5C0.5 10.7873 3.52269 7.29157 8.71751 4.69417C13.8824 2.11171 21.0527 0.5 29 0.5C36.9473 0.5 44.1176 2.11171 49.2825 4.69417C54.4773 7.29157 57.5 10.7873 57.5 14.5Z" fill="#0E0E0E" stroke="#EE644C"/>
<path d="M22.0159 17.4001C20.616 17.4001 19.4495 17.2896 18.5162 17.0686C17.5918 16.8477 16.8962 16.495 16.4296 16.0106C15.9718 15.5262 15.7428 14.8888 15.7428 14.0985C15.7428 13.3082 15.9718 12.6708 16.4296 12.1864C16.8962 11.6935 17.5918 11.3366 18.5162 11.1157C19.4495 10.8862 20.616 10.7715 22.0159 10.7715C23.407 10.7715 24.5604 10.8862 25.476 11.1157C26.4005 11.3366 27.0916 11.6935 27.5495 12.1864C28.0073 12.6708 28.2362 13.3082 28.2362 14.0985C28.2362 14.8888 28.0073 15.5262 27.5495 16.0106C27.0916 16.495 26.4005 16.8477 25.476 17.0686C24.5604 17.2896 23.407 17.4001 22.0159 17.4001ZM22.0159 15.488C22.6675 15.488 23.2133 15.437 23.6535 15.335C24.0938 15.2245 24.4283 15.0673 24.6572 14.8634C24.8862 14.6594 25.0006 14.4045 25.0006 14.0985C25.0006 13.7926 24.8862 13.5376 24.6572 13.3337C24.4371 13.1212 24.107 12.9598 23.6668 12.8493C23.2265 12.7388 22.6807 12.6836 22.0291 12.6836C21.3688 12.6836 20.8097 12.7388 20.3519 12.8493C19.9029 12.9513 19.5595 13.1085 19.3218 13.3209C19.0929 13.5334 18.9784 13.7926 18.9784 14.0985C18.9784 14.4045 19.0929 14.6594 19.3218 14.8634C19.5507 15.0673 19.8897 15.2245 20.3387 15.335C20.7965 15.437 21.3556 15.488 22.0159 15.488Z" fill="#EE644C"/>
<path d="M40.9198 10.899V19.0572H37.7503V12.2247L38.9521 12.862L33.1016 16.4823L32.8771 15.7429H37.9616V17.655H29.6943V15.7429L37.7503 10.899H40.9198ZM40.7085 17.655V15.7429H43.0857V17.655H40.7085Z" fill="#EE644C"/>
</svg>
