<?xml version="1.0" encoding="UTF-8" standalone="no"?>
<!-- Created with Inkscape (http://www.inkscape.org/) -->

<svg
   width="71.236801mm"
   height="62.781055mm"
   viewBox="0 0 71.236801 62.781055"
   version="1.1"
   id="svg43874"
   xmlns="http://www.w3.org/2000/svg"
   xmlns:svg="http://www.w3.org/2000/svg">
  <defs
     id="defs43871" />
  <g
     id="layer1"
     transform="translate(-79.000528,-87.914084)">
    <path
       style="fill:none;fill-opacity:1;stroke:#ee644c;stroke-width:5.19228;stroke-linecap:round;stroke-linejoin:round;stroke-miterlimit:4;stroke-dasharray:none"
       id="path7289"
       transform="matrix(0.26963082,0,0,0.26963082,-3.5051,106.41449)"
       d="m 486.86169,120.14696 c -17.56948,17.07111 -49.94202,28.96222 -74.47652,29.5932 -24.5345,0.63098 -55.53105,-14.23953 -73.09407,-31.4318 -17.56302,-17.19226 -31.30099,-46.180917 -30.67942,-71.016872 0.62158,-24.835956 12.82495,-56.5660207 30.59549,-73.449282 17.77055,-16.883261 48.29871,-31.496517 73.10804,-31.953523 24.80932,-0.457006 57.03106,12.72517 74.46255,29.844342 17.43149,17.119171 31.25114,50.469179 30.81362,75.249922 -0.43751,24.780743 -13.16022,56.092893 -30.72969,73.164013 z" />
    <path
       style="display:inline;fill:none;stroke:#ee644c;stroke-width:1.465;stroke-linecap:butt;stroke-linejoin:miter;stroke-miterlimit:4;stroke-dasharray:none;stroke-opacity:1"
       d="m 101.23673,104.30477 c -0.0411,1.07719 -0.0248,2.16241 -0.19674,3.22755 -0.0414,0.25652 0.14143,0.43436 0.29066,0.61199 0.189,0.22497 0.32725,0.52745 0.59835,0.65615 1.10021,0.52232 2.31191,0.73066 3.49393,0.9845 0.6082,0.13061 1.23496,0.20346 1.81995,0.41761 0.72388,0.26499 1.37328,0.69315 2.11072,0.93303 2.93844,0.95584 5.93947,1.74566 8.98989,2.21889 1.31503,0.20401 2.64061,-0.024 3.96107,-0.026 5.87037,-0.009 11.76514,-0.60251 17.44599,-2.08258 0.72865,-0.18984 1.46643,-0.33901 2.20694,-0.47509 2.05735,-0.37808 4.14022,-0.64507 6.16545,-1.17207 0.39094,-0.10173 0.81951,-0.1396 1.15769,-0.36526 0.22725,-0.15164 0.22788,-0.46641 0.22163,-0.70946 -0.0219,-0.85206 -0.32162,-1.66609 -0.43956,-2.50426 -0.0734,-0.52134 0.0329,-1.0463 0.0103,-1.56813 -0.004,-0.0937 0.12742,-0.42817 0.0149,-0.33796 -0.26399,0.21164 -0.58119,0.35073 -0.88521,0.49638 -0.91794,0.43976 -1.8929,0.75398 -2.89406,0.94211 -1.43797,0.27021 -2.89779,0.44152 -4.30085,0.88659 -2.46734,0.78268 -5.06192,0.98063 -7.61455,1.31208 -0.87972,0.11423 -1.74763,0.30193 -2.62406,0.43688 -1.65675,0.2551 -3.34256,0.203 -5.00978,0.0871 -0.97287,-0.0677 -1.93665,-0.22841 -2.91221,-0.26709 -2.11669,-0.0839 -4.24453,0.10739 -6.35285,-0.19283 -3.66547,-0.52195 -7.37359,-0.92279 -10.92971,-1.99744 -1.30154,-0.39332 -4.68698,-0.4946 -3.78366,-1.5126 1.9746,-2.22528 3.47356,-4.80911 5.01026,-7.342248 1.18073,-1.946347 2.34034,-3.966374 4.02652,-5.517121 0.86242,-0.793152 1.92907,-1.332775 3.02596,-1.722655 1.07799,-0.383161 2.2215,-0.525294 3.35189,-0.651721 2.99894,-0.335411 6.02114,-0.473739 9.03718,-0.408892 1.92634,0.04142 3.86923,0.08455 5.76141,0.46737 0.6631,0.134158 1.31882,0.301317 1.98358,0.429676 1.59794,0.308547 3.23586,0.539152 4.73246,1.219945 0.32474,0.147722 0.60428,0.384691 0.93218,0.521207 0.20221,0.08419 0.50587,0.04745 0.61452,0.241836 0.29134,0.521229 0.62934,1.047889 0.6929,1.657196 0.0245,0.234469 -0.10688,0.43873 -0.27754,0.596269 -0.96745,0.893084 -2.25829,1.327971 -3.52843,1.570703 -2.51699,0.481013 -5.0968,0.295862 -7.63454,0.564372 -2.26305,0.239446 -4.53602,0.392796 -6.81062,0.449344 -1.58724,0.03946 -3.1809,0.07063 -4.76317,-0.08819 -0.42715,-0.04287 -0.84104,-0.156484 -1.25798,-0.258387 -1.26899,-0.310151 -2.60469,-0.428793 -3.80044,-0.96197 -0.19896,-0.08872 -0.49147,-0.127755 -0.56738,-0.346362 -0.0722,-0.207826 -0.21107,-0.368797 -0.38875,-0.509772 -0.42381,-0.33626 -0.7728,-0.756067 -1.1171,-1.170306 -0.25419,-0.305826 -1.14286,-0.950412 -0.74548,-0.931817 0.0307,0.0014 0.0338,0.05324 0.0615,0.05878"
       id="path17514" />
    <path
       style="display:inline;fill:none;stroke:#ee644c;stroke-width:1.465;stroke-linecap:butt;stroke-linejoin:miter;stroke-miterlimit:4;stroke-dasharray:none;stroke-opacity:1"
       d="m 140.59244,92.172026 c 0.21377,0.203155 0.46684,0.368854 0.63169,0.621131 0.63475,0.971402 1.04211,2.064246 1.48104,3.13198 0.37187,0.904607 0.78152,1.806003 1.37733,2.589621 0.20416,0.268516 0.44589,0.504348 0.68186,0.74432 1.06476,1.082802 2.09219,2.205852 3.02217,3.407262 0.40793,0.52699 0.79864,1.06857 1.14485,1.63843"
       id="path17518" />
    <path
       style="display:inline;fill:none;stroke:#ee644c;stroke-width:1.465;stroke-linecap:butt;stroke-linejoin:miter;stroke-miterlimit:4;stroke-dasharray:none;stroke-opacity:1"
       d="m 103.70212,109.83221 c 3.13649,10.16154 6.3473,20.29915 9.53554,30.44572 0.74356,2.36638 1.35396,4.78688 2.35295,7.06082 0.27241,0.62007 0.45805,1.34113 0.98093,1.78263 0.19139,0.1616 0.47239,0.11177 0.70437,0.0942 0.41656,-0.0316 0.83123,-0.0717 1.25086,-0.0589 2.68724,0.0819 5.31386,0.78464 8.00918,0.79583 1.93815,0.008 3.87704,-0.0415 5.81461,0.0101 0.29254,0.008 0.44577,-0.32197 0.59843,-0.53171 0.75378,-1.03564 1.28079,-2.21533 1.74675,-3.40199 0.48145,-1.2261 0.78047,-2.5138 1.20716,-3.75951 0.43332,-1.26505 1.28114,-2.32566 1.81181,-3.54731 0.73852,-1.70013 1.2407,-3.48676 1.9,-5.21807 1.10095,-2.89106 1.90284,-5.87994 2.95701,-8.79058 0.36617,-1.01102 0.51764,-2.08054 0.80696,-3.11393 0.76211,-2.72209 1.79462,-5.35469 2.8037,-7.99132 0.38954,-1.01783 0.91684,-2.01228 1.05183,-3.09747 0.0267,-0.21481 0.14194,-0.50717 -0.0356,-0.66298 -0.052,-0.0456 -0.12816,-0.0366 -0.18845,-0.0155"
       id="path17522" />
    <path
       style="display:inline;fill:none;stroke:#ee644c;stroke-width:1.465;stroke-linecap:butt;stroke-linejoin:miter;stroke-miterlimit:4;stroke-dasharray:none;stroke-opacity:1"
       d="m 126.86834,124.79277 c 0.12155,0.0409 0.25146,0.08 0.3813,0.059 0.0725,-0.0117 0.13315,-0.0693 0.14737,-0.14182 0.0246,-0.12562 -0.0148,-0.25369 -0.0614,-0.36899 -0.12005,-0.29695 -0.2986,-0.56689 -0.49557,-0.81768 -0.2579,-0.32837 -0.54361,-0.64208 -0.88704,-0.88165 -0.16795,-0.11716 -0.35121,-0.22758 -0.55716,-0.25802 -0.0949,-0.014 -0.19085,0.008 -0.27715,0.0512 -0.59703,0.29731 -1.22049,0.54042 -1.80554,0.86174 -0.33697,0.18507 -0.66276,0.40102 -0.9244,0.68618 -0.30503,0.33245 -0.57298,0.70048 -0.78631,1.09801 -0.17528,0.32663 -0.32335,0.67657 -0.36596,1.04771 -0.0293,0.25515 0.008,0.52702 0.15306,0.74434 0.1542,0.23072 0.40817,0.37537 0.66895,0.45419 0.32288,0.0976 0.6729,0.0667 0.98894,-0.0418 0.43588,-0.1497 0.82011,-0.41718 1.17004,-0.71178 0.4323,-0.36394 0.79915,-0.79601 1.19348,-1.19919 0.0606,-0.062 0.1127,-0.13438 0.18383,-0.18434 0.11948,-0.0839 0.26609,-0.11277 0.40712,-0.13775 0.2152,-0.0381 0.43652,-0.0514 0.64459,-0.12227 0.0957,-0.0326 0.18367,-0.0882 0.24793,-0.16834 0.16131,-0.20119 0.29049,-0.43112 0.36258,-0.67906 0.0503,-0.17289 0.0747,-0.36186 0.0191,-0.53696 -0.0292,-0.092 -0.0916,-0.16806 -0.16107,-0.23402 -0.22895,-0.21743 -0.51281,-0.36593 -0.80384,-0.48244 -0.34157,-0.13675 -0.69495,-0.24534 -1.02428,-0.41138"
       id="path17526" />
    <path
       style="display:inline;fill:none;stroke:#ee644c;stroke-width:1.465;stroke-linecap:butt;stroke-linejoin:miter;stroke-miterlimit:4;stroke-dasharray:none;stroke-opacity:1"
       d="m 123.28204,128.46577 c -0.21356,0.34032 -0.41366,0.70118 -0.49465,1.09843 -0.0478,0.2346 -0.04,0.49679 0.0964,0.70254 0.13468,0.20313 0.36893,0.31373 0.60035,0.36426 0.3801,0.083 0.77545,0.0568 1.15563,-0.009 0.69242,-0.11987 1.36271,-0.35815 1.98465,-0.68275 0.52876,-0.27597 1.03457,-0.61159 1.44573,-1.04732 0.1941,-0.2057 0.35422,-0.44207 0.47592,-0.6979 0.19349,-0.40674 0.35494,-0.83737 0.39801,-1.28889 0.0315,-0.33036 -0.0191,-0.67056 -0.1637,-0.97095 -0.10496,-0.21801 -0.23193,-0.43884 -0.4261,-0.58221 -0.0647,-0.0478 -0.1494,-0.0524 -0.22663,-0.0572 -0.19192,-0.0119 -0.38655,0.0158 -0.57645,-0.0186 -0.0474,-0.009 -0.0841,-0.0448 -0.13224,-0.057 -0.0517,-0.0132 -0.0753,0.0578 -0.0911,0.095 -0.0719,0.17026 -0.11943,0.34941 -0.17657,0.52487 -0.0685,0.21028 -0.13092,0.42586 -0.24233,0.61803 -0.0439,0.0758 -0.10162,0.14542 -0.18291,0.18648 -0.62589,0.31618 -1.23538,0.66331 -1.85257,0.99587 -0.52624,0.28355 -1.05676,0.55915 -1.59148,0.82636 z"
       id="path17530" />
  </g>
</svg>
