<?xml version="1.0" encoding="UTF-8" standalone="no"?>
<!-- Created with Inkscape (http://www.inkscape.org/) -->

<svg
   width="60.737862mm"
   height="62.493847mm"
   viewBox="0 0 60.737862 62.493847"
   version="1.1"
   id="svg44033"
   xmlns="http://www.w3.org/2000/svg"
   xmlns:svg="http://www.w3.org/2000/svg">
  <defs
     id="defs44030" />
  <g
     id="layer1"
     transform="translate(-79.92476,-126.62443)">
    <path
       style="display:inline;fill:none;stroke:#ee644c;stroke-width:1.465;stroke-linecap:butt;stroke-linejoin:miter;stroke-miterlimit:4;stroke-dasharray:none;stroke-opacity:1"
       d="m 103.78045,128.95552 c -0.28391,-0.28304 -0.63338,-0.49357 -1.00529,-0.64057 -0.35098,-0.13873 -0.72283,-0.21167 -1.08408,-0.31762 -0.39229,-0.11505 -0.77052,-0.27222 -1.15952,-0.3974 -0.39146,-0.12597 -0.794852,-0.23938 -1.208992,-0.24294 -0.230387,-0.002 -0.461391,0.0471 -0.668587,0.15204 -0.494769,0.25068 -0.989772,0.51406 -1.418286,0.86943 -0.213723,0.17724 -0.426259,0.36943 -0.561473,0.61338 -0.09849,0.1777 -0.09621,0.38798 -0.09089,0.58497 0.0057,0.2106 0.0046,0.42199 -0.02849,0.63118 -0.09689,0.61231 -0.05224,1.25553 0.187816,1.832 0.225024,0.54037 0.627565,0.99566 1.111193,1.32117 0.556994,0.37489 1.211217,0.57568 1.869283,0.688 0.546436,0.0933 1.096356,0.19636 1.653126,0.1853 0.25834,-0.005 0.51564,-0.0486 0.7603,-0.13349 0.61341,-0.2129 1.15681,-0.599 1.60462,-1.06395 0.44969,-0.4669 0.82377,-1.02041 1.02222,-1.64108 0.14203,-0.44421 0.17962,-0.93625 0.0241,-1.3832 -0.13718,-0.39427 -0.4355,-0.71465 -0.78605,-0.93366 -0.0716,-0.0447 -0.14549,-0.0858 -0.22101,-0.12356 z"
       id="path21397" />
    <path
       style="display:inline;fill:none;stroke:#ee644c;stroke-width:1.465;stroke-linecap:butt;stroke-linejoin:miter;stroke-miterlimit:4;stroke-dasharray:none;stroke-opacity:1"
       d="m 98.56771,133.49997 c 0.194495,4.18566 0.401973,8.37273 0.40098,12.56405"
       id="path21401" />
    <path
       style="display:inline;fill:none;stroke:#ee644c;stroke-width:1.465;stroke-linecap:butt;stroke-linejoin:miter;stroke-miterlimit:4;stroke-dasharray:none;stroke-opacity:1"
       d="m 102.84483,133.90095 c -0.14957,4.1439 0.13236,8.28669 0.13366,12.43039"
       id="path21405" />
    <path
       style="display:inline;fill:none;stroke:#ee644c;stroke-width:1.465;stroke-linecap:butt;stroke-linejoin:miter;stroke-miterlimit:4;stroke-dasharray:none;stroke-opacity:1"
       d="m 97.69695,150.9821 c 0.127293,0.52025 -0.06007,1.04584 0.01472,1.57411 0.633617,4.47591 0.581055,9.01323 0.370114,13.51832 -0.196739,4.20178 -1.081549,8.43862 -0.517101,12.60929 0.05952,0.43979 0.187347,0.86726 0.312126,1.29201 0.403424,1.37326 0.818893,2.74728 1.364862,4.07063 0.149654,0.36274 0.309719,0.72189 0.496582,1.06895 0.105771,0.19645 0.234078,-0.0508 0.284931,-0.15601 0.24609,-0.5089 0.45157,-1.03923 0.59982,-1.58376 0.19282,-0.70822 0.54675,-1.36015 0.95591,-1.96552 0.38953,-0.57632 0.75989,-1.16419 1.10533,-1.77034 0.28131,-0.49362 0.73199,-0.89644 0.91408,-1.43694 0.12386,-0.36766 0.15262,-0.75949 0.17982,-1.14367 0.10642,-1.50287 0.10302,-3.01084 0.10051,-4.51663 -0.003,-1.69253 -0.0436,-3.38478 -0.0258,-5.07744 0.0305,-2.89197 0.0837,-5.78338 0.12787,-8.67538 0.019,-1.24516 0.21146,-2.50112 0.008,-3.73853 -0.25091,-1.52428 -0.54011,-3.05343 -0.54419,-4.60373"
       id="path21409" />
    <path
       style="display:inline;fill:none;stroke:#ee644c;stroke-width:1.465;stroke-linecap:butt;stroke-linejoin:miter;stroke-miterlimit:4;stroke-dasharray:none;stroke-opacity:1"
       d="m 101.14107,154.56405 c 0.0474,3.30799 -0.10553,6.61485 -0.28231,9.91714 -0.2933,5.47891 -0.72439,10.95044 -0.937676,16.43346 -0.05448,1.40061 -0.09446,2.80207 -0.09507,4.20384"
       id="path21413" />
    <path
       style="display:inline;fill:none;stroke:#ee644c;stroke-width:1.465;stroke-linecap:butt;stroke-linejoin:miter;stroke-miterlimit:4;stroke-dasharray:none;stroke-opacity:1"
       d="m 103.44431,150.44746 c 0.35034,0.0403 0.69712,0.12153 1.04958,0.13251 0.33976,0.0106 0.67997,0.008 1.01977,2.1e-4 1.23958,-0.0299 2.48122,-0.0425 3.71699,-0.14578 0.29316,-0.0245 0.60016,0.001 0.87782,-0.0982 0.0849,-0.0305 0.13896,-0.11078 0.20394,-0.17091 0.45769,-0.42352 0.92228,-0.83879 1.38709,-1.25507 0.53116,-0.4757 1.09612,-0.92998 1.51717,-1.50936 0.14192,-0.19529 0.29408,-0.40566 0.31569,-0.65291 0.009,-0.1039 -0.0314,-0.21565 -0.13081,-0.26645 -0.24118,-0.12329 -0.51381,-0.16677 -0.77883,-0.20482 -0.92234,-0.13242 -1.85491,-0.17406 -2.78521,-0.20396 -1.81009,-0.0582 -3.62174,-0.0416 -5.43201,-0.003 -2.22856,0.0472 -4.45436,0.18012 -6.683333,0.21445 -1.295382,0.02 -2.590963,0.0191 -3.886519,0.004 -1.11087,-0.0129 -2.227916,-0.0468 -3.331938,0.0916 -0.455423,0.0571 -1.014312,-0.01 -1.340465,0.31884 -0.06986,0.0704 -0.03514,0.19811 -0.0058,0.28385 0.04151,0.12133 -0.07287,0.19073 -0.136477,0.27396 -0.148433,0.19423 -0.196066,0.4602 -0.112578,0.69211 0.122906,0.34141 0.397421,0.60149 0.680225,0.81432 0.524372,0.39463 1.114609,0.69689 1.726292,0.92945 0.192216,0.0731 0.388916,0.13531 0.569314,0.237 0.462523,0.26073 0.892056,0.57945 1.285053,0.93552 0.07091,0.0642 0.132433,0.13057 0.241447,0.13553 0.599177,0.0273 1.199382,0.0179 1.79894,0.0127 0.83387,-0.007 1.67379,0.0671 2.501602,-0.0323 1.244418,-0.14943 2.497667,-0.18282 3.741227,-0.36845 0.50251,-0.075 1.00684,0.0684 1.51197,-0.0123 0.12481,-0.02 0.22728,-0.10178 0.34866,-0.1299 0.0433,-0.01 0.0872,-0.0166 0.13119,-0.0223"
       id="path21417" />
    <path
       style="display:inline;fill:none;fill-opacity:1;stroke:#ee644c;stroke-width:5.53701;stroke-linecap:round;stroke-linejoin:round;stroke-miterlimit:4;stroke-dasharray:none;stroke-opacity:1"
       id="path23903"
       transform="matrix(0.26458333,0,0,0.26458333,0.04054,153.01434)"
       d="m 504.93875,90.027811 c -14.67601,20.449319 -45.09034,39.852939 -70.08667,42.933359 -24.99633,3.08043 -56.56184,-3.91422 -77.27099,-18.86432 -20.70916,-14.950102 -40.09205,-47.317711 -43.75865,-72.365406 -3.6666,-25.047694 3.37863,-58.116341 18.72047,-78.62768 15.34184,-20.511338 47.98185,-37.131845 73.04206,-41.286294 25.06021,-4.15445 58.90135,4.345204 78.88319,19.634009 19.98183,15.288805 38.9065,46.975331 43.33033,71.854961 4.42382,24.879629 -8.18373,56.27205 -22.85974,76.721371 z" />
    <path
       style="display:inline;fill:none;stroke:#ee644c;stroke-width:1.465;stroke-linecap:round;stroke-linejoin:round;stroke-miterlimit:4;stroke-dasharray:none;stroke-opacity:0.988235"
       d="m 97.69695,150.9821 c -2.010814,2.28766 -3.789839,4.76369 -5.670834,7.15609 -1.293509,1.64519 -2.67756,3.21654 -4.11824,4.73693 -0.789603,0.83329 -1.267344,1.90071 -2.004962,2.77356 -0.325927,0.38568 -0.700713,0.72614 -1.071761,1.06727 -0.907037,0.8339 -1.988793,1.50827 -2.726338,2.49632 -0.14506,0.19433 -0.125015,0.45405 -0.110536,0.68196 0.01322,0.20802 0.01487,0.4163 -0.02574,0.62378 -0.361298,1.84622 -0.754142,3.68169 -1.187868,5.5194 -0.08802,0.37296 -0.04259,0.76031 0.0043,1.13456 0.01711,0.13652 0.02503,0.28343 -0.04087,0.40328 -0.05611,0.10204 0.01835,0.21329 0.129673,0.1235 0.332112,-0.26785 0.61998,-0.5854 0.928299,-0.87939 0.322952,-0.30794 0.617969,-0.66049 1.004525,-0.88709 0.162996,-0.0955 0.350221,-0.13739 0.527851,-0.19852 1.11567,-0.38395 2.243535,-0.80246 3.202639,-1.5041 0.45716,-0.33444 0.890426,-0.72326 1.189004,-1.20792 0.342079,-0.55527 0.423037,-1.2348 0.783329,-1.77702 0.681748,-1.02599 1.437541,-2.00178 2.235329,-2.93981 0.417287,-0.49064 0.90373,-0.92061 1.305004,-1.42433 0.227985,-0.28619 0.203405,-0.68066 0.42676,-0.97719 0.60663,-0.80536 1.317463,-1.53575 1.855523,-2.38849 0.264638,-0.41941 0.404515,-0.90065 0.595865,-1.35476 0.154088,-0.36568 0.28178,-0.77572 0.589295,-1.03762 0.132084,-0.11249 0.276679,-0.2093 0.400583,-0.33272 0.508244,-0.50625 0.950738,-1.0747 1.363496,-1.65971 0.267166,-0.37866 0.535348,-0.75975 0.751781,-1.17031"
       id="path24018" />
    <path
       style="display:inline;fill:none;stroke:#ee644c;stroke-width:1.465;stroke-linecap:round;stroke-linejoin:round;stroke-miterlimit:4;stroke-dasharray:none;stroke-opacity:0.988235"
       d="m 103.44433,150.44746 c 0.46312,0.0395 0.93931,0.13525 1.33479,0.38399 0.67651,0.4255 1.19012,1.05142 1.68944,1.66397 0.44529,0.54626 0.91022,1.08015 1.46096,1.52703 0.313,0.25397 0.662,0.46255 0.96248,0.73124 0.53635,0.4796 0.89546,1.11297 1.27671,1.71373 0.33284,0.52448 0.70225,1.03539 1.18934,1.43337 1.59846,1.30606 2.95624,2.86897 4.40191,4.33469 1.03099,1.04529 2.13478,2.02174 3.34108,2.86582 0.52229,0.36546 0.89081,0.91439 1.11277,1.50615 0.42738,1.13942 0.46376,2.38347 0.90142,3.52042 0.12473,0.32402 0.29438,0.62802 0.40856,0.95706 0.20752,0.59804 1.06557,1.88214 0.43444,1.84477 -0.17768,-0.0105 -0.36492,0.0558 -0.53464,0 -0.84515,-0.27801 -1.55322,-0.88384 -2.42956,-1.07508 -0.57262,-0.12496 -1.15679,-0.18507 -1.7367,-0.26553 -0.84676,-0.11749 -1.70589,-0.19811 -2.52693,-0.44187 -0.27074,-0.0804 -0.57352,-0.13863 -0.77709,-0.34198 -1.66258,-1.66085 -3.3899,-3.27752 -4.79123,-5.17476 -0.31233,-0.42286 -0.56625,-0.88579 -0.87414,-1.31164 -0.27771,-0.38411 -0.7921,-0.54692 -1.01115,-0.97317 -0.39072,-0.76029 -0.8671,-1.47388 -1.37458,-2.16008 -0.4869,-0.65838 -0.98124,-1.32058 -1.58274,-1.87873 -0.16565,-0.15371 -0.33744,-0.30624 -0.53902,-0.41147"
       id="path24022" />
    <path
       style="display:inline;fill:none;stroke:#ee644c;stroke-width:1.465;stroke-linecap:round;stroke-linejoin:round;stroke-miterlimit:4;stroke-dasharray:none;stroke-opacity:0.988235"
       d="m 121.95823,172.9297 c -2.38297,-2.39118 -4.42517,-5.08656 -6.60243,-7.65908 -1.12151,-1.32511 -2.29738,-2.60522 -3.54626,-3.81203 -0.81275,-0.78537 -1.58953,-1.60629 -2.3175,-2.4755 -0.27414,-0.32733 -0.61196,-0.59281 -0.93917,-0.86417 -0.46185,-0.38302 -0.95621,-0.73845 -1.34294,-1.20004 -0.16691,-0.19922 -0.34552,-0.42527 -0.35529,-0.69669"
       id="path24026" />
    <path
       style="display:inline;fill:none;stroke:#ee644c;stroke-width:1.465;stroke-linecap:round;stroke-linejoin:round;stroke-miterlimit:4;stroke-dasharray:none;stroke-opacity:0.988235"
       d="m 80.65726,177.34048 c 0.39668,-1.06494 1.058545,-1.99937 1.700205,-2.92701 0.305812,-0.44211 0.589833,-0.89851 0.872224,-1.35596 1.284738,-2.08116 2.904195,-3.92326 4.475146,-5.78822 1.216432,-1.44409 2.379055,-2.93979 3.3607,-4.5576 0.923019,-1.52119 1.845655,-3.04536 2.870994,-4.50001 0.358208,-0.50819 0.699171,-1.03605 1.135752,-1.48051 0.08759,-0.0892 0.176663,-0.18148 0.287589,-0.24167"
       id="path24030" />
  </g>
</svg>
