<?xml version="1.0" encoding="UTF-8" standalone="no"?>
<!-- Created with Inkscape (http://www.inkscape.org/) -->

<svg
   width="63.183826mm"
   height="58.490662mm"
   viewBox="0 0 63.183826 58.490662"
   version="1.1"
   id="svg43116"
   xmlns="http://www.w3.org/2000/svg"
   xmlns:svg="http://www.w3.org/2000/svg">
  <defs
     id="defs43113" />
  <g
     id="layer1"
     transform="translate(-38.693282,-50.771659)">
    <path
       style="display:inline;fill:none;fill-opacity:1;stroke:#ee644c;stroke-width:5.53701;stroke-linecap:round;stroke-linejoin:round;stroke-miterlimit:4;stroke-dasharray:none;stroke-opacity:1"
       id="path23903-8"
       transform="matrix(0.26458333,0,0,0.26458333,-38.744973,73.158383)"
       d="m 504.93875,90.027811 c -14.67601,20.449319 -45.09034,39.852939 -70.08667,42.933359 -24.99633,3.08043 -56.56184,-3.91422 -77.27099,-18.86432 -20.70916,-14.950102 -40.09205,-47.317711 -43.75865,-72.365406 -3.6666,-25.047694 3.37863,-58.116341 18.72047,-78.62768 15.34184,-20.511338 47.98185,-37.131845 73.04206,-41.286294 25.06021,-4.15445 58.90135,4.345204 78.88319,19.634009 19.98183,15.288805 38.9065,46.975331 43.33033,71.854961 4.42382,24.879629 -8.18373,56.27205 -22.85974,76.721371 z" />
    <path
       style="display:inline;fill:none;stroke:#ee644c;stroke-width:1.465;stroke-linecap:butt;stroke-linejoin:miter;stroke-miterlimit:4;stroke-dasharray:none;stroke-opacity:1"
       d="m 40.562818,76.340791 c 1.204776,-0.29729 2.445171,-0.433588 3.684126,-0.465115 0.346537,-0.0088 0.693404,-0.01087 1.039698,0.0098 1.036747,0.06191 2.071671,0.155302 3.103029,0.276765 0.749536,0.08827 1.503202,0.16397 2.240486,0.327276 0.213516,0.04729 0.435848,0.08007 0.631922,0.179722 0.04364,0.02218 0.104637,0.05332 0.09532,0.111722 -0.01579,0.09903 -0.08135,0.180953 -0.144367,0.254937 -0.213618,0.250793 -0.46302,0.468533 -0.718637,0.674971 -0.246295,0.198909 -0.496767,0.394109 -0.764281,0.563999 -0.110023,0.06987 -0.236042,0.10756 -0.356301,0.155518 -1.262711,0.503558 -2.536463,1.005703 -3.87326,1.277105 -1.000149,0.203054 -2.03368,0.242593 -3.046773,0.102148 -0.220695,-0.0306 -0.437746,-0.08272 -0.659673,-0.106165 -0.246486,-0.02604 -0.502116,-0.0536 -0.721446,-0.179725 C 40.743591,79.334537 40.49192,79.032446 40.311476,78.703169 40.09152,78.301791 39.9594,77.84199 39.98807,77.381623 c 0.02067,-0.331972 0.151586,-0.662411 0.393883,-0.895817 0.05573,-0.05369 0.116482,-0.102107 0.180865,-0.145015 z"
       id="path25701" />
    <path
       style="display:inline;fill:none;stroke:#ee644c;stroke-width:1.465;stroke-linecap:butt;stroke-linejoin:miter;stroke-miterlimit:4;stroke-dasharray:none;stroke-opacity:1"
       d="m 61.355453,76.529814 c 1.358947,-0.276493 2.7522,-0.301539 4.133959,-0.291936 0.51006,0.0035 1.020546,-0.01066 1.530192,0.0098 0.572302,0.02298 1.131891,0.170717 1.671421,0.353942 0.978214,0.332203 1.918311,0.773012 2.811651,1.289915 0.598211,0.346136 1.196998,0.704599 1.715609,1.163382 0.08717,0.07711 0.186012,0.145346 0.25466,0.239467 0.05178,0.07099 0.007,0.16259 -0.04404,0.219951 -0.135973,0.152832 -0.315088,0.258897 -0.493048,0.355073 -0.308584,0.16677 -0.623339,0.3305 -0.959774,0.429588 -0.327029,0.09632 -0.667416,0.138491 -1.005331,0.174795 -1.216821,0.130731 -2.442117,0.172068 -3.665236,0.163382 -1.482972,-0.01053 -2.97152,-0.06913 -4.436874,-0.3064 -0.748679,-0.121225 -1.505704,-0.261333 -2.202433,-0.568638 -0.348846,-0.153865 -0.700948,-0.347143 -0.932591,-0.660074 -0.155261,-0.209745 -0.203739,-0.488848 -0.134515,-0.740358 0.106083,-0.385428 0.375151,-0.700607 0.657057,-0.972009 0.335827,-0.323314 0.712585,-0.600919 1.099294,-0.859878 z"
       id="path25705" />
    <path
       style="display:inline;fill:none;stroke:#ee644c;stroke-width:1.465;stroke-linecap:butt;stroke-linejoin:miter;stroke-miterlimit:4;stroke-dasharray:none;stroke-opacity:1"
       d="m 50.581088,73.032872 c -1.576925,-0.307683 -3.111475,-0.787332 -4.677965,-1.143904 -0.425749,-0.09691 -0.844044,-0.22326 -1.265312,-0.337483 -0.566781,-0.153678 -1.133027,-0.320544 -1.71504,-0.403767 -0.215314,-0.03079 -0.434872,-0.05945 -0.652467,-0.03183 -0.06722,0.0085 -0.129254,0.03711 -0.182779,0.07889 -0.242631,0.189375 -0.466342,0.401663 -0.68871,0.613989 -0.54861,0.523835 -1.096585,1.050088 -1.603694,1.614309 -0.119184,0.132607 -0.212691,0.289609 -0.346614,0.407893 -0.03552,0.03137 -0.0207,0.07091 0.03177,0.05901 0.128113,-0.02905 0.245462,-0.09174 0.361958,-0.150415 0.301914,-0.152063 0.594981,-0.320734 0.895965,-0.474712 0.105293,-0.05387 0.223312,-0.07186 0.337096,-0.09927 0.864865,-0.208356 1.748566,-0.372188 2.641729,-0.364074 0.326142,0.003 0.65073,0.04069 0.97223,0.09437 1.326987,0.221542 2.649535,0.481859 3.988797,0.617262 0.416538,0.04211 0.836556,0.0983 1.254709,0.06346 0.127383,-0.01062 0.273329,6.34e-4 0.376976,-0.07819 0.08584,-0.06528 0.13515,-0.165965 0.181528,-0.260482 0.03289,-0.06702 0.06223,-0.135706 0.08982,-0.205053 z"
       id="path25717" />
    <path
       style="display:inline;fill:none;stroke:#ee644c;stroke-width:1.465;stroke-linecap:butt;stroke-linejoin:miter;stroke-miterlimit:4;stroke-dasharray:none;stroke-opacity:1"
       d="m 59.654238,72.93836 c 0.862148,-0.481936 1.819199,-0.754526 2.770106,-1.001141 0.393172,-0.101968 0.79101,-0.186366 1.181014,-0.300033 0.715354,-0.208491 1.378779,-0.553684 2.067175,-0.832415 0.488032,-0.197604 1.010605,-0.354759 1.543763,-0.314117 0.526976,0.04017 1.010007,0.296798 1.423828,0.614255 0.189458,0.14534 0.351986,0.321472 0.531735,0.477903 0.32157,0.279854 0.73765,0.40276 1.119802,0.573557 0.194134,0.08676 0.363395,0.21667 0.543343,0.330567 0.228535,0.144649 0.47271,0.262482 0.712269,0.387407 0.451446,0.235419 0.919992,0.444364 1.341912,0.730137 0.098,0.06638 0.222345,0.116512 0.278102,0.222957 0.04222,0.08061 -0.08182,0.09973 -0.136606,0.111198 -0.286662,0.06002 -0.581166,0.08363 -0.873212,0.07624 -0.135389,-0.0034 -0.278852,0.01409 -0.405701,-0.03689 -1.030336,-0.414118 -2.017361,-0.929096 -3.051385,-1.333861 -0.738537,-0.289098 -1.565263,-0.330332 -2.265139,-0.711076 -0.08131,-0.04423 -0.169912,-0.07631 -0.264087,-0.07573 -0.247043,0.0015 -0.483543,0.08527 -0.713297,0.167756 -0.294818,0.10585 -0.575765,0.255356 -0.881686,0.325171 -0.165841,0.03785 -0.335667,0.05481 -0.503727,0.08055 -1.356762,0.207793 -2.711803,0.468016 -4.087876,0.503291 -0.110087,0.0028 -0.220214,0.0043 -0.330333,0.0043 z"
       id="path25721" />
    <path
       style="display:inline;fill:none;stroke:#ee644c;stroke-width:1.465;stroke-linecap:butt;stroke-linejoin:miter;stroke-miterlimit:4;stroke-dasharray:none;stroke-opacity:1"
       d="m 44.626833,86.926132 c 1.150384,-0.626903 2.111044,-1.53133 3.18387,-2.272558 0.710891,-0.491163 1.502085,-0.886162 2.35743,-1.050499 0.32487,-0.06242 0.656261,-0.06787 0.986051,-0.08223 0.29463,-0.01283 0.599395,-0.09452 0.886356,-0.01188 0.578545,0.166614 1.065995,0.556777 1.655071,0.69575 0.228907,0.054 0.469385,0.116378 0.700547,0.07271 0.219781,-0.04152 0.419825,-0.14941 0.620817,-0.242849 0.311003,-0.144582 0.612394,-0.315875 0.941165,-0.417881 0.08224,-0.02552 0.170113,-0.02721 0.241939,0.04426 0.716334,0.712798 1.456218,1.416633 2.316604,1.954243 0.405864,0.253603 0.849261,0.441985 1.310849,0.57571 0.701617,0.203263 1.395819,0.432894 2.080277,0.687572 0.445371,0.165717 0.933136,0.262959 1.319631,0.540685 0.06934,0.04983 0.228131,0.0855 0.204126,0.180951 -0.111505,0.443405 -0.412365,0.811022 -0.753763,1.103225 -0.537403,0.459964 -1.17139,0.785077 -1.725732,1.223298 -0.84623,0.668966 -1.622789,1.434675 -2.558306,1.984436 -0.491678,0.288937 -1.037694,0.471865 -1.593677,0.592438 -0.627327,0.136045 -1.270838,0.19044 -1.89234,0.353275 -0.703736,0.18438 -1.368803,0.523395 -2.094205,0.612383 -0.522644,0.06412 -1.052123,0.04099 -1.574781,-0.007 -0.777586,-0.07141 -1.559938,-0.172366 -2.304704,-0.411156 -0.299051,-0.09588 -0.609804,-0.194626 -0.856435,-0.395779 -0.337899,-0.275591 -0.530112,-0.690278 -0.865793,-0.964981 -0.301738,-0.246926 -0.722405,-0.313827 -0.991187,-0.60494 -0.141944,-0.153737 -0.249314,-0.335357 -0.360602,-0.511452 -0.486387,-0.769628 -0.965735,-1.547492 -1.356006,-2.370469 -0.14386,-0.303362 -0.312282,-0.605169 -0.370808,-0.937693 -0.01588,-0.09022 -0.0403,-0.217203 0.05532,-0.272404 0.133244,-0.07692 0.297026,-0.01963 0.438282,-0.06715 z"
       id="path25725" />
    <path
       style="display:inline;fill:none;stroke:#ee644c;stroke-width:1.465;stroke-linecap:butt;stroke-linejoin:miter;stroke-miterlimit:4;stroke-dasharray:none;stroke-opacity:1"
       d="m 44.626833,86.926132 c 0.0011,0.1131 -0.095,0.235028 -0.03422,0.336588 0.0441,0.07369 0.136498,0.100414 0.21412,0.121279 0.297429,0.07995 0.608625,0.08991 0.914652,0.08611 0.45175,-0.0056 0.904933,-0.03512 1.349716,-0.11664 0.233307,-0.04276 0.45383,-0.135399 0.670159,-0.22956 0.465436,-0.202589 0.886687,-0.499622 1.244059,-0.85993 0.362228,-0.365204 0.589549,-0.88727 1.037235,-1.140945 0.116062,-0.06576 0.252226,-0.08177 0.381022,-0.108544 0.104833,-0.02179 0.204481,-0.0609 0.308782,-0.08768 0.192613,-0.04944 0.394752,-0.0388 0.591103,-0.02652 0.705887,0.04414 1.406694,0.148772 2.102367,0.272636 0.512874,0.09132 1.029966,0.169917 1.531916,0.310309 0.399927,0.111857 0.747364,0.351324 1.079867,0.591814 0.472796,0.34196 0.930763,0.733358 1.489951,0.92205 1.014557,0.342351 2.027379,0.722679 3.092757,0.871769 0.61263,0.08573 1.252386,0.09194 1.845522,-0.10887 0.318645,-0.107878 0.651193,-0.176802 0.988874,-0.172285"
       id="path25729" />
    <path
       style="display:inline;fill:none;stroke:#ee644c;stroke-width:1.465;stroke-linecap:butt;stroke-linejoin:miter;stroke-miterlimit:4;stroke-dasharray:none;stroke-opacity:1"
       d="m 44.626833,86.926132 c 0.03151,0.251987 -0.02718,0.532375 0.09451,0.756094 0.04441,0.08164 0.126521,0.13487 0.199741,0.188761 0.188866,0.139007 0.387563,0.263908 0.570134,0.411904 0.500956,0.406086 0.956324,0.867493 1.477425,1.248528 0.131375,0.09606 0.293872,0.142086 0.422936,0.241923 0.122906,0.09507 0.2095,0.228083 0.295961,0.354932 0.07501,0.110054 0.160036,0.212087 0.259063,0.30232 0.568122,0.517674 1.268662,0.87459 1.99815,1.102809 0.793862,0.248358 1.640868,0.365373 2.468922,0.254093 0.688678,-0.09255 1.331857,-0.377279 1.948289,-0.684979 0.605571,-0.302279 1.194813,-0.63835 1.821611,-0.8971 1.389619,-0.573651 2.870652,-0.903441 4.238363,-1.53057 0.67823,-0.310985 1.296839,-0.750077 2.007996,-0.987839 0.321196,-0.107386 0.668596,-0.167211 1.004779,-0.09929"
       id="path25733" />
    <path
       style="display:inline;fill:none;stroke:#ee644c;stroke-width:1.465;stroke-linecap:butt;stroke-linejoin:miter;stroke-miterlimit:4;stroke-dasharray:none;stroke-opacity:1"
       d="m 42.831105,76.057255 c -0.127432,0.113745 -0.231483,0.251003 -0.326457,0.392109 -0.203509,0.302362 -0.372922,0.627372 -0.510012,0.964791 -0.123099,0.302984 -0.227445,0.616752 -0.271425,0.941644 -0.02661,0.196561 -0.03341,0.400033 0.01789,0.593516 0.02927,0.110391 0.09011,0.208072 0.145477,0.306701 0.0677,0.120595 0.141885,0.241101 0.174503,0.37683 0.0087,0.03612 0.01394,0.07318 0.01393,0.110375"
       id="path25737" />
    <path
       style="display:inline;fill:none;stroke:#ee644c;stroke-width:1.465;stroke-linecap:butt;stroke-linejoin:miter;stroke-miterlimit:4;stroke-dasharray:none;stroke-opacity:1"
       d="m 46.611584,76.246279 c 0.181527,0.08898 0.324051,0.241633 0.431446,0.410259 0.145512,0.228476 0.24009,0.485513 0.30954,0.746096 0.10486,0.393447 0.158584,0.798918 0.1853,1.204646 0.01247,0.18935 0.01879,0.37911 0.01884,0.56887"
       id="path25741" />
    <path
       style="display:inline;fill:none;stroke:#ee644c;stroke-width:1.465;stroke-linecap:butt;stroke-linejoin:miter;stroke-miterlimit:4;stroke-dasharray:none;stroke-opacity:1"
       d="m 64.001786,76.246279 c -0.293478,0.296025 -0.540567,0.635892 -0.749809,0.995588 -0.258823,0.444928 -0.467411,0.922821 -0.583668,1.425222 -0.08827,0.381457 -0.125275,0.781495 -0.05243,1.168663 0.0309,0.164236 0.08238,0.324963 0.157258,0.47454"
       id="path25749" />
    <path
       style="display:inline;fill:none;stroke:#ee644c;stroke-width:1.465;stroke-linecap:butt;stroke-linejoin:miter;stroke-miterlimit:4;stroke-dasharray:none;stroke-opacity:1"
       d="m 66.270075,76.151767 c 0.317585,0.470057 0.525621,1.007137 0.651783,1.558411 0.158372,0.692017 0.19489,1.40469 0.200566,2.112429 0.0026,0.320083 -0.0016,0.640164 -0.0017,0.960247"
       id="path25753" />
    <path
       style="display:inline;fill:none;stroke:#ee644c;stroke-width:1.465;stroke-linecap:butt;stroke-linejoin:miter;stroke-miterlimit:4;stroke-dasharray:none;stroke-opacity:1"
       d="m 48.312799,102.89865 c 0.177225,0.12758 0.668678,0.54943 0.539383,0.37298 -0.112019,-0.15287 -0.379748,0.0756 -0.161336,0.0996 1.421553,0.15591 2.861162,0.0456 4.269019,-0.1856 0.659813,-0.10837 1.29738,-0.311 1.93474,-0.50901 1.635941,-0.50825 3.30871,-0.93941 4.854089,-1.69635 0.936285,-0.4586 1.686372,-1.197074 2.456274,-1.883179 0.443654,-0.395366 0.85627,-0.837486 1.360707,-1.153462 0.449213,-0.281384 0.93938,-0.505781 1.312651,-0.901361 0.575651,-0.610056 1.097547,-1.283479 1.807969,-1.753782 0.518016,-0.342929 1.056959,-0.687645 1.411792,-1.220562 1.191411,-1.789358 2.610077,-3.40934 3.89111,-5.132301 1.129687,-1.519404 2.051379,-3.193213 2.704901,-4.973289 0.315776,-0.860117 0.838971,-1.626082 1.178133,-2.474322 0.322362,-0.806224 0.511266,-1.655733 0.836364,-2.463231 0.798815,-1.984143 2.909598,-4.12235 2.03706,-6.086401 -0.329941,-0.742685 -0.311679,-1.577579 -0.261655,-2.371393 0.08848,-1.404016 0.380268,-2.789828 0.404086,-4.199033 0.0079,-0.466647 -0.09423,-0.922781 -0.235029,-1.367921 -0.198458,-0.627429 -0.469549,-1.236993 -0.592701,-1.883235 -0.09917,-0.520406 0.122392,-1.038211 -0.01152,-1.56617 -0.387539,-1.527965 -0.765188,-3.098573 -1.604818,-4.450003 -0.482877,-0.777217 -1.30125,-1.238889 -2.068044,-1.689995 -0.488702,-0.287504 -0.944404,-0.625657 -1.355075,-1.021658 -0.640722,-0.617834 -1.207997,-1.331298 -1.950652,-1.825375 -0.08131,-0.05409 -0.163576,-0.121739 -0.263602,-0.134316"
       id="path25777" />
    <path
       style="display:inline;fill:none;stroke:#ee644c;stroke-width:1.465;stroke-linecap:butt;stroke-linejoin:miter;stroke-miterlimit:4;stroke-dasharray:none;stroke-opacity:1"
       d="m 44.43781,60.651803 c 1.062936,0.670759 2.291052,1.021805 3.518838,1.241441 1.527453,0.273243 3.077748,0.374771 4.612787,0.596123 3.396501,0.489775 6.828007,0.652599 10.25287,0.815187 1.411611,0.06701 2.826066,0.246946 4.239498,0.12403 0.243851,-0.02121 0.488663,-0.04997 0.721442,-0.133557 0.352562,-0.1266 0.681354,-0.344679 1.062446,-0.372341 0.02353,-0.0017 0.04712,-0.0026 0.07072,-0.0026"
       id="path25781" />
    <path
       style="display:inline;fill:none;stroke:#ee644c;stroke-width:1.465;stroke-linecap:butt;stroke-linejoin:miter;stroke-miterlimit:4;stroke-dasharray:none;stroke-opacity:1"
       d="m 61.071915,63.014602 c 2.001688,-0.199597 3.991476,-0.565074 5.914265,-1.158637 0.437747,-0.135132 0.876049,-0.27103 1.303134,-0.437251 0.43364,-0.168772 0.837319,-0.403943 1.225206,-0.659093 0.360155,-0.236908 0.757285,-0.416749 1.103106,-0.67489 0.529163,-0.394999 1.155227,-0.625785 1.772827,-0.842614 0.513702,-0.180352 1.043326,-0.3371 1.513541,-0.615367 0.388156,-0.229706 0.685779,-0.576844 0.978735,-0.913031 0.290468,-0.333331 0.570289,-0.687779 0.939539,-0.938005 0.115171,-0.07805 0.239328,-0.14391 0.371563,-0.187926"
       id="path25785" />
    <path
       style="display:inline;fill:none;stroke:#ee644c;stroke-width:1.465;stroke-linecap:butt;stroke-linejoin:miter;stroke-miterlimit:4;stroke-dasharray:none;stroke-opacity:1"
       d="m 76.193831,56.587788 c -0.474876,1.038728 -1.153052,1.994004 -2.033161,2.7295 -0.850878,0.711068 -1.875129,1.187969 -2.935583,1.493828 -1.394172,0.402111 -2.844021,0.549875 -4.28384,0.682968 -1.170894,0.108234 -2.344303,0.202999 -3.506532,0.386374"
       id="path25789" />
    <path
       style="display:inline;fill:none;stroke:#ee644c;stroke-width:1.465;stroke-linecap:butt;stroke-linejoin:miter;stroke-miterlimit:4;stroke-dasharray:none;stroke-opacity:1"
       d="m 61.071915,63.014602 c 0.283436,-0.18875 0.533179,-0.433479 0.850609,-0.567072 0.837529,-0.352481 1.754482,-0.478312 2.577926,-0.866373 0.386644,-0.182212 0.757004,-0.398183 1.113262,-0.633966 0.805501,-0.533105 1.516722,-1.194957 2.175086,-1.898688 0.548408,-0.586198 1.066651,-1.199572 1.600172,-1.799131"
       id="path25793" />
    <path
       style="display:inline;fill:none;stroke:#ee644c;stroke-width:1.465;stroke-linecap:butt;stroke-linejoin:miter;stroke-miterlimit:4;stroke-dasharray:none;stroke-opacity:1"
       d="m 72.035303,54.886572 c -1.352269,1.644271 -2.934056,3.117194 -4.757495,4.228107 -1.566576,0.954422 -3.304577,1.609609 -5.093861,2.002573 -2.00754,0.440898 -4.070073,0.573003 -6.121166,0.574182"
       id="path25797" />
    <path
       style="display:inline;fill:none;stroke:#ee644c;stroke-width:1.465;stroke-linecap:butt;stroke-linejoin:miter;stroke-miterlimit:4;stroke-dasharray:none;stroke-opacity:1"
       d="m 53.699983,61.785946 c 2.368213,0.22325 4.767441,0.112638 7.10636,-0.315431 2.315984,-0.423871 4.593214,-1.156647 6.644747,-2.32518 1.827561,-1.040961 3.466456,-2.462974 4.584213,-4.258763"
       id="path25801" />
    <path
       style="display:inline;fill:none;stroke:#ee644c;stroke-width:1.465;stroke-linecap:butt;stroke-linejoin:miter;stroke-miterlimit:4;stroke-dasharray:none;stroke-opacity:1"
       d="m 72.035303,54.886572 c -0.05099,0.384331 0.04484,0.778709 -0.05663,1.158151 -0.05841,0.218412 -0.225472,0.382783 -0.383855,0.533143 -0.526698,0.500017 -1.196034,0.802922 -1.827796,1.144065 -1.732343,0.935442 -3.575843,1.655027 -5.46704,2.198426 -1.836307,0.527627 -3.717477,0.872666 -5.586872,1.25973 -1.5976,0.330788 -3.181787,0.776449 -4.816604,0.880449 -0.890505,0.05665 -1.801685,0.009 -2.65383,-0.27459"
       id="path25805" />
    <path
       style="display:inline;fill:none;stroke:#ee644c;stroke-width:1.465;stroke-linecap:butt;stroke-linejoin:miter;stroke-miterlimit:4;stroke-dasharray:none;stroke-opacity:1"
       d="m 52.66035,58.572539 c 1.770997,0.0036 3.52769,-0.357532 5.197419,-0.933194 2.015482,-0.694865 3.914695,-1.686143 5.73865,-2.781516 0.294291,-0.176736 0.586827,-0.35639 0.877929,-0.538329"
       id="path25809" />
    <path
       style="display:inline;fill:none;stroke:#ee644c;stroke-width:1.465;stroke-linecap:butt;stroke-linejoin:miter;stroke-miterlimit:4;stroke-dasharray:none;stroke-opacity:1"
       d="m 64.474348,54.3195 c 0.191676,0.07547 0.405855,0.06206 0.596983,0.141198 0.05426,0.02247 0.08485,0.08338 0.0646,0.142338 -0.287195,0.836178 -0.856937,1.550381 -1.535141,2.10659 -0.891726,0.731322 -1.944472,1.237776 -3.021125,1.633419 -1.786476,0.656486 -3.662901,1.00982 -5.52781,1.362582 -0.407205,0.07703 -0.813864,0.159029 -1.22581,0.208087 -0.803085,0.09564 -1.610532,0.186803 -2.418556,0.171924 -0.207022,-0.0038 -0.398963,-0.100194 -0.606017,-0.107782 -0.0617,-0.0023 -0.118516,0.04161 -0.125872,0.106875 -0.03763,0.333835 0.09073,0.656469 0.230391,0.952558 0.1167,0.247403 0.249387,0.488543 0.336685,0.748657"
       id="path25813" />
    <path
       style="display:inline;fill:none;stroke:#ee644c;stroke-width:1.465;stroke-linecap:butt;stroke-linejoin:miter;stroke-miterlimit:4;stroke-dasharray:none;stroke-opacity:1"
       d="m 51.242676,61.785946 c -0.02378,-0.211217 -0.117125,-0.405761 -0.176796,-0.607879 -0.037,-0.12534 -0.08312,-0.25795 -0.05634,-0.389906 0.01388,-0.06837 0.0722,-0.118386 0.138617,-0.136358 1.475811,-0.399355 3.005495,-0.528557 4.524371,-0.648692 1.269122,-0.100381 2.54627,-0.173352 3.795708,-0.426891 0.786114,-0.15952 1.557849,-0.382747 2.321622,-0.625926 0.809082,-0.257605 1.611794,-0.536637 2.40095,-0.850315"
       id="path25817" />
    <path
       style="display:inline;fill:none;stroke:#ee644c;stroke-width:1.465;stroke-linecap:butt;stroke-linejoin:miter;stroke-miterlimit:4;stroke-dasharray:none;stroke-opacity:1"
       d="m 64.190805,58.099979 c 0.06438,-7e-4 0.145629,-0.05451 0.192746,-0.01057 0.02038,0.01901 -0.06708,0.03807 -0.08382,0.04526 -1.163478,0.500035 -2.326349,1.010299 -3.536004,1.390485 -1.331867,0.418597 -2.70807,0.673101 -4.083448,0.897344 -0.298563,0.04868 -0.594906,0.113959 -0.895577,0.147214 -0.440503,0.04872 -0.87919,-0.03959 -1.316619,-0.07948 -0.329383,-0.03003 -0.678238,-0.04815 -0.986561,0.08578 -0.07419,0.03223 -0.155229,0.05937 -0.213902,0.116686 -0.06932,0.06772 -0.05965,0.175776 -0.02887,0.259235 0.07162,0.19422 0.198613,0.360354 0.306608,0.535071 0.05896,0.09539 0.118023,0.192355 0.154623,0.29894"
       id="path25821" />
    <path
       style="display:inline;fill:none;stroke:#ee644c;stroke-width:1.465;stroke-linecap:butt;stroke-linejoin:miter;stroke-miterlimit:4;stroke-dasharray:none;stroke-opacity:1"
       d="m 44.43781,60.651803 c 1.99664,0.461315 4.069611,0.53809 6.105015,0.335889 2.106229,-0.209237 4.1759,-0.707515 6.181541,-1.375521"
       id="path25825" />
    <path
       style="display:inline;fill:none;stroke:#ee644c;stroke-width:1.465;stroke-linecap:butt;stroke-linejoin:miter;stroke-miterlimit:4;stroke-dasharray:none;stroke-opacity:1"
       d="m 44.43781,60.651803 c 0.51753,-0.325292 1.012198,-0.685502 1.528221,-1.013159 0.06978,-0.04431 0.134479,-0.108099 0.217545,-0.121014 0.06811,-0.01059 0.130498,0.02695 0.194423,0.04433 0.241784,0.06575 0.495608,0.06841 0.744136,0.06102 0.647362,-0.01923 1.289265,-0.113109 1.929221,-0.206033 1.097945,-0.159425 2.195217,-0.344685 3.265544,-0.639826 0.582517,-0.160628 1.166176,-0.338996 1.702385,-0.621311 0.22482,-0.118368 0.444377,-0.254209 0.625816,-0.433884"
       id="path25829" />
    <path
       style="display:inline;fill:none;stroke:#ee644c;stroke-width:1.465;stroke-linecap:butt;stroke-linejoin:miter;stroke-miterlimit:4;stroke-dasharray:none;stroke-opacity:1"
       d="m 47.934752,59.234123 c 1.549053,-0.344982 3.120379,-0.607877 4.635062,-1.091474 1.027429,-0.32803 2.033122,-0.760409 2.913068,-1.391538 0.306648,-0.219939 0.596588,-0.463461 0.863434,-0.730395"
       id="path25833" />
    <path
       style="display:inline;fill:none;stroke:#ee644c;stroke-width:1.465;stroke-linecap:butt;stroke-linejoin:miter;stroke-miterlimit:4;stroke-dasharray:none;stroke-opacity:1"
       d="m 52.66035,58.572539 c 0.557193,-0.417767 1.055033,-0.914321 1.649905,-1.281464 0.29498,-0.182056 0.614799,-0.318783 0.932506,-0.455101 0.973612,-0.417746 1.960917,-0.803836 2.959592,-1.157247 0.754902,-0.267145 1.512167,-0.534055 2.290511,-0.724231 0.295055,-0.07209 0.592749,-0.147895 0.897198,-0.161077 0.01996,-8.64e-4 0.03993,-0.0014 0.0599,-0.0014"
       id="path25837" />
    <path
       style="display:inline;fill:none;stroke:#ee644c;stroke-width:1.465;stroke-linecap:butt;stroke-linejoin:miter;stroke-miterlimit:4;stroke-dasharray:none;stroke-opacity:1"
       d="m 62.206059,59.895707 c 1.518692,-1.226773 3.181343,-2.258573 4.857035,-3.25416 0.774568,-0.460198 1.553289,-0.913392 2.325876,-1.376927"
       id="path25841" />
    <path
       style="display:inline;fill:none;stroke:#ee644c;stroke-width:1.465;stroke-linecap:butt;stroke-linejoin:miter;stroke-miterlimit:4;stroke-dasharray:none;stroke-opacity:1"
       d="m 63.15118,56.020716 c 1.029186,-0.741535 1.971807,-1.595607 3.005933,-2.330628 0.653006,-0.464134 1.345241,-0.883953 2.097713,-1.166315"
       id="path25845" />
    <path
       style="display:inline;fill:none;stroke:#ee644c;stroke-width:1.465;stroke-linecap:butt;stroke-linejoin:miter;stroke-miterlimit:4;stroke-dasharray:none;stroke-opacity:1"
       d="m 53.699983,55.453644 c 2.37174,-1.162352 4.899815,-1.973732 7.249117,-3.184625 0.525714,-0.270967 1.041453,-0.561797 1.540495,-0.87939"
       id="path25849" />
    <path
       style="display:inline;fill:none;stroke:#ee644c;stroke-width:1.465;stroke-linecap:butt;stroke-linejoin:miter;stroke-miterlimit:4;stroke-dasharray:none;stroke-opacity:1"
       d="m 51.053647,56.871324 c 1.421793,0.226621 2.876986,0.156218 4.291767,-0.08716 1.986879,-0.341789 3.898643,-0.998296 5.820752,-1.588701 1.090589,-0.334991 2.188689,-0.651845 3.308182,-0.875966"
       id="path25853" />
    <path
       style="display:inline;fill:none;stroke:#ee644c;stroke-width:1.465;stroke-linecap:butt;stroke-linejoin:miter;stroke-miterlimit:4;stroke-dasharray:none;stroke-opacity:1"
       d="m 66.742634,59.895707 c 0.72604,-0.05606 1.453533,-0.0919 2.179259,-0.151882 0.442399,-0.03656 0.887091,-0.09403 1.309214,-0.237652 0.47087,-0.160203 0.918058,-0.38077 1.364001,-0.598815 1.090353,-0.533131 2.194022,-1.038433 3.285977,-1.568387 0.198751,-0.09646 0.336169,-0.276081 0.500015,-0.41814 0.02831,-0.02455 0.05546,-0.04906 0.09208,-0.0628 0.240218,-0.09008 0.480435,-0.180164 0.720652,-0.270246"
       id="path25857" />
    <path
       style="display:inline;fill:none;stroke:#ee644c;stroke-width:1.465;stroke-linecap:butt;stroke-linejoin:miter;stroke-miterlimit:4;stroke-dasharray:none;stroke-opacity:1"
       d="m 61.449962,54.792058 c 0.03763,0.204662 0.01586,0.413722 0.0079,0.620017 -0.0069,0.180255 -0.01745,0.364493 0.02803,0.541154 0.02782,0.108101 0.100265,0.212524 0.210767,0.245801 0.14555,0.04383 0.300806,0.04009 0.450671,0.03036 0.470525,-0.03054 0.934935,-0.120504 1.394712,-0.220999 1.093996,-0.239119 2.174651,-0.536296 3.245499,-0.86262 0.6041,-0.18409 1.207177,-0.372551 1.802458,-0.583859 0.103256,-0.03665 0.204977,-0.07942 0.29542,-0.142551 0.238213,-0.166266 0.445082,-0.372474 0.646683,-0.580267 0.403694,-0.416093 0.771575,-0.864861 1.163039,-1.292104 0.03651,-0.03985 0.07331,-0.07946 0.11148,-0.117729"
       id="path25861" />
    <path
       style="display:inline;fill:none;stroke:#ee644c;stroke-width:1.465;stroke-linecap:butt;stroke-linejoin:miter;stroke-miterlimit:4;stroke-dasharray:none;stroke-opacity:1"
       d="m 61.922524,57.627419 c 1.633689,0.1596 3.296498,0.109317 4.902732,-0.247032 1.382424,-0.306696 2.709118,-0.852977 3.915208,-1.594269 0.447981,-0.27534 0.879818,-0.576725 1.294839,-0.899546"
       id="path25865" />
    <path
       style="display:inline;fill:none;stroke:#ee644c;stroke-width:1.465;stroke-linecap:butt;stroke-linejoin:miter;stroke-miterlimit:4;stroke-dasharray:none;stroke-opacity:1"
       d="m 52.66035,58.572539 c 0.03905,0.246109 0.01487,0.495927 0.0068,0.743418 -0.0068,0.208063 -0.01194,0.421185 0.04763,0.622921 0.03978,0.134717 0.10741,0.283359 0.237518,0.340118 0.0674,0.0294 0.143128,0.03154 0.215385,0.03353 0.307378,0.0085 0.614669,-0.01403 0.920736,-0.03951 0.928526,-0.0773 1.853751,-0.189415 2.777819,-0.307574 0.867223,-0.11089 1.733482,-0.229279 2.598925,-0.353273"
       id="path25869" />
    <path
       style="display:inline;fill:none;stroke:#ee644c;stroke-width:1.465;stroke-linecap:butt;stroke-linejoin:miter;stroke-miterlimit:4;stroke-dasharray:none;stroke-opacity:1"
       d="m 47.934752,59.234123 c 0.299873,0.328081 0.46061,0.758391 0.771979,1.077308 0.130194,0.13335 0.30207,0.226371 0.489423,0.250427 0.755823,0.09705 1.521619,0.06927 2.278941,0.0088 1.535683,-0.12258 3.057592,-0.374565 4.57138,-0.654479 1.547048,-0.286064 3.097141,-0.564826 4.624368,-0.94194 0.283942,-0.07011 0.577475,-0.0651 0.867685,-0.07411 0.277751,-0.0086 0.571517,-0.01198 0.820006,-0.14878 0.10054,-0.05535 0.203778,-0.124473 0.258414,-0.227133 0.05272,-0.09906 -0.0041,-0.210432 -0.06809,-0.288557 -0.183478,-0.223956 -0.444474,-0.370612 -0.621081,-0.60087 0,0 -0.0053,-0.0074 -0.0053,-0.0074"
       id="path25873" />
    <path
       style="display:inline;fill:none;stroke:#ee644c;stroke-width:1.465;stroke-linecap:butt;stroke-linejoin:miter;stroke-miterlimit:4;stroke-dasharray:none;stroke-opacity:1"
       d="m 68.916411,62.920106 c 0.684434,0.167601 1.402954,0.157811 2.093358,0.03075 0.890424,-0.163876 1.736779,-0.501388 2.560876,-0.867482 0.972989,-0.432238 1.921245,-0.924853 2.925783,-1.282378 0.149937,-0.05336 0.301056,-0.103454 0.4535,-0.14919"
       id="path25877" />
    <path
       style="display:inline;fill:none;stroke:#ee644c;stroke-width:1.465;stroke-linecap:butt;stroke-linejoin:miter;stroke-miterlimit:4;stroke-dasharray:none;stroke-opacity:1"
       d="m 70.712138,63.770698 c 0.693062,-0.220729 1.348481,-0.551614 1.950164,-0.959264 0.758146,-0.513657 1.437425,-1.132133 2.098937,-1.762236 0.495276,-0.47176 0.903842,-1.03861 1.446166,-1.455176 0.02791,-0.02144 0.06132,-0.09419 0.08474,-0.07292 0.182257,0.165434 0.299058,0.386959 0.402184,0.606978 0.08243,0.175871 0.157697,0.355602 0.255598,0.523729"
       id="path25881" />
    <path
       style="display:inline;fill:none;stroke:#ee644c;stroke-width:1.465;stroke-linecap:butt;stroke-linejoin:miter;stroke-miterlimit:4;stroke-dasharray:none;stroke-opacity:1"
       d="m 76.193831,56.587788 c -0.293148,0.761887 -0.483876,1.565252 -0.859099,2.293614 -0.186457,0.36194 -0.396403,0.711707 -0.621626,1.050705 -0.525074,0.790323 -1.136653,1.532231 -1.872086,2.135616 -0.443604,0.363954 -0.929711,0.687384 -1.467981,0.890579 -0.451764,0.170539 -0.937706,0.209612 -1.41496,0.248704 -0.292529,0.02396 -0.591358,0.02105 -0.875453,0.09601 -0.123262,0.03252 -0.227662,0.116326 -0.35435,0.13854 -0.04466,0.0078 -0.08614,-0.02159 -0.102086,-0.06427 -0.02993,-0.0801 0.02573,-0.158071 0.07577,-0.216146 0.07015,-0.08142 0.156866,-0.149241 0.214451,-0.241034"
       id="path25885" />
    <path
       style="display:inline;fill:none;stroke:#ee644c;stroke-width:1.465;stroke-linecap:butt;stroke-linejoin:miter;stroke-miterlimit:4;stroke-dasharray:none;stroke-opacity:1"
       d="m 70.712138,63.770698 c 0.558067,0.143602 1.139976,0.20033 1.714888,0.147296 0.692317,-0.06386 1.357655,-0.278212 2.018331,-0.482353 0.371209,-0.114699 0.746875,-0.213902 1.121323,-0.317409 0.462936,-0.127967 0.929668,-0.252904 1.369777,-0.448276 0.323498,-0.143606 0.627023,-0.344324 0.855494,-0.617987 0.281749,-0.33748 0.448092,-0.753243 0.574861,-1.16945 0.117566,-0.385992 0.204732,-0.780524 0.284331,-1.175836"
       id="path25889" />
    <path
       style="display:inline;fill:none;stroke:#ee644c;stroke-width:1.465;stroke-linecap:butt;stroke-linejoin:miter;stroke-miterlimit:4;stroke-dasharray:none;stroke-opacity:1"
       d="m 75.721272,62.731066 c 0.02018,0.349699 0.105461,0.69189 0.203264,1.02679 0.204299,0.699566 0.46407,1.381075 0.709556,2.066794 0.246788,0.689356 0.499805,1.379261 0.66733,2.092911 0.08816,0.375549 0.164357,0.75966 0.15037,1.146966 -0.007,0.193579 -0.0369,0.390817 -0.123817,0.565913"
       id="path25893" />
    <path
       style="display:inline;fill:none;stroke:#ee644c;stroke-width:1.465;stroke-linecap:butt;stroke-linejoin:miter;stroke-miterlimit:4;stroke-dasharray:none;stroke-opacity:1"
       d="m 76.099319,64.999353 c -0.04486,1.608868 0.112023,3.213334 0.237006,4.815316 0.07618,0.976441 0.141016,1.95481 0.141041,2.934665"
       id="path25897" />
    <path
       style="display:inline;fill:none;stroke:#ee644c;stroke-width:1.465;stroke-linecap:butt;stroke-linejoin:miter;stroke-miterlimit:4;stroke-dasharray:none;stroke-opacity:1"
       d="m 76.382855,74.734087 c -0.06594,1.385118 -0.09456,2.771884 -0.09451,4.158525"
       id="path25901" />
    <path
       style="display:inline;fill:none;stroke:#ee644c;stroke-width:1.465;stroke-linecap:butt;stroke-linejoin:miter;stroke-miterlimit:4;stroke-dasharray:none;stroke-opacity:1"
       d="m 76.382855,74.734087 c 0.05948,0.06261 0.07217,0.188673 0.157548,0.204356 0.04956,0.0091 0.048,-0.0735 0.0558,-0.10969 0.07585,-0.35193 0.02189,-0.714569 0.07456,-1.069402 0.305942,-2.060916 0.559161,-4.13307 0.635929,-6.216906 0.01561,-0.423863 -2.22e-4,-0.848654 0.02259,-1.272129 0.01618,-0.300316 0.128448,-0.587384 0.132041,-0.889168 0.0018,-0.152445 -0.04896,-0.311625 -0.167194,-0.414271 -0.114155,-0.09911 -0.27501,-0.110083 -0.419095,-0.09551 -0.261244,0.02641 -0.511726,0.12398 -0.775728,0.127991"
       id="path25905" />
    <path
       style="display:inline;fill:none;stroke:#ee644c;stroke-width:1.465;stroke-linecap:butt;stroke-linejoin:miter;stroke-miterlimit:4;stroke-dasharray:none;stroke-opacity:1"
       d="m 76.099319,64.999353 c 0.425106,0.624949 0.70578,1.34199 0.848505,2.083122 0.184038,0.955658 0.154132,1.93535 0.0962,2.90183 -0.06528,1.089122 -0.176766,2.182548 -0.08407,3.27317 0.03741,0.440166 0.145351,0.870393 0.274974,1.292143 0.04488,0.146034 0.102222,0.289442 0.127012,0.440767 0.01065,0.06499 0.0091,0.149857 -0.05428,0.186796 -0.102177,0.05955 -0.232248,0.04342 -0.334589,-0.0073 -0.221331,-0.10959 -0.376271,-0.314915 -0.590224,-0.435841"
       id="path25909" />
    <path
       style="display:inline;fill:none;stroke:#ee644c;stroke-width:1.465;stroke-linecap:butt;stroke-linejoin:miter;stroke-miterlimit:4;stroke-dasharray:none;stroke-opacity:1"
       d="m 76.382857,74.734082 c 0.420774,-0.333042 0.814797,-0.714353 1.091047,-1.178865 0.199901,-0.336132 0.319689,-0.71595 0.369611,-1.102985 0.06569,-0.509314 0.03599,-1.0243 0.0088,-1.535159 -0.02684,-0.503742 -0.08454,-1.009058 -0.05075,-1.51257 0.01163,-0.173337 0.05461,-0.342452 0.08885,-0.512233 0.02893,-0.143493 0.06944,-0.287447 0.06615,-0.434409 -0.0011,-0.05002 0.001,-0.110975 -0.03886,-0.146391 -0.03913,-0.03476 -0.09523,-0.01404 -0.137115,0.0043 -0.112365,0.04931 -0.193483,0.150562 -0.240309,0.261744 -0.07313,0.173625 -0.09233,0.363178 -0.115869,0.548325 -0.02158,0.169747 -0.0396,0.342119 -0.0964,0.504557"
       id="path25913" />
    <path
       style="display:inline;fill:none;stroke:#ee644c;stroke-width:1.465;stroke-linecap:butt;stroke-linejoin:miter;stroke-miterlimit:4;stroke-dasharray:none;stroke-opacity:1"
       d="m 76.099319,64.999353 c 0.346422,0.261597 0.707558,0.502752 1.060633,0.755142 0.146795,0.104934 0.298139,0.207571 0.420509,0.341711 0.09073,0.09946 0.147129,0.225647 0.175991,0.356252 0.04566,0.206607 0.0595,0.418472 0.07644,0.628838 0.0457,0.567533 0.100502,1.134696 0.18343,1.698102 0.03535,0.240139 0.0926,0.476381 0.132385,0.715713 0.01189,0.07153 0.02645,0.14402 0.01964,0.217073 -0.0034,0.03617 -0.03081,0.06782 -0.06755,0.07327 -0.07217,0.01072 -0.144771,-0.0068 -0.214735,-0.02279 -0.186383,-0.04255 -0.371247,-0.09156 -0.558079,-0.132222"
       id="path25917" />
    <path
       style="display:inline;fill:none;stroke:#ee644c;stroke-width:1.465;stroke-linecap:butt;stroke-linejoin:miter;stroke-miterlimit:4;stroke-dasharray:none;stroke-opacity:1"
       d="m 76.949928,60.651805 c 0.327108,1.642231 0.67697,3.279896 1.03963,4.91462"
       id="path25921" />
    <path
       style="display:inline;fill:none;stroke:#ee644c;stroke-width:1.465;stroke-linecap:butt;stroke-linejoin:miter;stroke-miterlimit:4;stroke-dasharray:none;stroke-opacity:1"
       d="m 76.382857,74.734082 c 0.339618,0.197306 0.663555,0.423992 0.954275,0.688332 0.107824,0.09804 0.221829,0.193306 0.304763,0.31348 0.02314,0.03354 0.07876,0.07116 0.0592,0.108792 -0.01213,0.02334 -0.04484,0.0042 -0.06129,-0.0043 -0.07718,-0.03973 -0.146748,-0.09257 -0.214606,-0.146199 -0.228043,-0.18022 -0.441751,-0.377761 -0.651937,-0.578241 -0.131735,-0.125652 -0.261666,-0.253185 -0.390403,-0.381903 0,0 2e-6,-5e-6 2e-6,-5e-6 z"
       id="path25925" />
    <path
       style="display:inline;fill:none;stroke:#ee644c;stroke-width:1.465;stroke-linecap:butt;stroke-linejoin:miter;stroke-miterlimit:4;stroke-dasharray:none;stroke-opacity:1"
       d="m 76.382857,74.734082 c 0.208477,0.0664 0.391371,0.190112 0.585138,0.288449 0.142942,0.07254 0.296454,0.140778 0.460312,0.136534 0.123945,-0.0032 0.240942,-0.06458 0.323589,-0.155907 0.144926,-0.160151 0.233465,-0.362058 0.304899,-0.563159 0.157555,-0.443549 0.250697,-0.907022 0.325069,-1.370719 0.1509,-0.940834 0.232286,-1.891454 0.286145,-2.842254 0.04691,-0.82806 0.07567,-1.657391 0.07765,-2.486826"
       id="path25929" />
    <path
       style="display:inline;fill:none;stroke:#ee644c;stroke-width:1.465;stroke-linecap:butt;stroke-linejoin:miter;stroke-miterlimit:4;stroke-dasharray:none;stroke-opacity:1"
       d="m 78.367608,75.584693 c 0.376809,-0.141488 0.757004,-0.298385 1.161959,-0.331851 0.217945,-0.01801 0.453234,0.0087 0.633768,0.142828 0.08543,0.06349 0.08853,0.180599 0.08447,0.277219 -0.0048,0.113382 -0.006,0.227101 0.02377,0.339433 0.180368,0.681124 0.149238,1.400277 0.02777,2.08818 -0.175699,0.995051 -0.520334,1.953066 -0.938449,2.869987 -0.30319,0.664892 -0.619487,1.32846 -1.022524,1.938089 -0.191198,0.289204 -0.48301,0.489013 -0.770067,0.67355 -0.270893,0.174146 -0.553254,0.338964 -0.777637,0.574797 -0.43917,0.46158 -0.803414,0.989507 -1.253408,1.44101 -0.24846,0.249293 -0.579707,0.388581 -0.902978,0.513114 -0.302933,0.116698 -0.620867,0.206976 -0.896796,0.382158 -0.06811,0.04324 -0.132868,0.09227 -0.189999,0.149387"
       id="path25933" />
    <path
       style="display:inline;fill:none;stroke:#ee644c;stroke-width:1.465;stroke-linecap:butt;stroke-linejoin:miter;stroke-miterlimit:4;stroke-dasharray:none;stroke-opacity:1"
       d="m 78.367608,75.584693 c 0.05184,0.207286 0.02177,0.432766 0.111108,0.629867 0.02427,0.05355 0.04876,0.115458 0.100351,0.145575 0.07768,0.04535 0.169314,0.05451 0.25589,0.07267 0.143799,0.03017 0.29323,0.08009 0.393195,0.194014 0.112624,0.128348 0.13892,0.308392 0.130362,0.473144 -0.01394,0.268264 -0.08857,0.529778 -0.183207,0.779578 -0.18988,0.501198 -0.472769,0.959039 -0.742021,1.42006 -0.178583,0.305775 -0.351416,0.6157 -0.490826,0.941861 -0.32263,0.754817 -0.626734,1.520343 -1.027116,2.238427 -0.231439,0.415085 -0.483541,0.827024 -0.822287,1.163694 -0.205927,0.204665 -0.453474,0.388057 -0.744931,0.442588 -0.194204,0.03634 -0.396917,-5.93e-4 -0.571975,-0.08991"
       id="path25937" />
    <path
       style="display:inline;fill:none;stroke:#ee644c;stroke-width:1.465;stroke-linecap:butt;stroke-linejoin:miter;stroke-miterlimit:4;stroke-dasharray:none;stroke-opacity:1"
       d="m 44.626833,86.926132 c 0.252031,0.28302 0.438476,0.632616 0.756095,0.850606 0.37029,0.254139 0.811663,0.379099 1.247258,0.46385 0.884976,0.172184 1.789856,0.208147 2.689169,0.213555 1.623448,0.0098 3.243523,-0.107201 4.864069,-0.186016 0.906611,-0.04409 1.813908,0.0042 2.720854,0.0051 1.015083,0.0011 2.035914,-0.06979 3.027096,-0.313404 0.178798,-0.04394 0.349714,-0.121709 0.536303,-0.133109 0.311165,-0.01901 0.626321,0.07996 0.933582,0.0026 0.04941,-0.01244 0.09763,-0.02983 0.143217,-0.05265"
       id="path25941" />
    <path
       style="display:inline;fill:none;stroke:#ee644c;stroke-width:1.465;stroke-linecap:butt;stroke-linejoin:miter;stroke-miterlimit:4;stroke-dasharray:none;stroke-opacity:1"
       d="m 49.824991,85.224914 c 0.05655,1.200159 -0.0452,2.399782 -0.142315,3.595106 -0.07144,0.879273 -0.141123,1.759919 -0.141221,2.642684"
       id="path25945" />
    <path
       style="display:inline;fill:none;stroke:#ee644c;stroke-width:1.465;stroke-linecap:butt;stroke-linejoin:miter;stroke-miterlimit:4;stroke-dasharray:none;stroke-opacity:1"
       d="m 53.794495,85.319429 c 0,2.079263 0,4.158527 0,6.23779"
       id="path25949" />
    <path
       style="display:inline;fill:none;stroke:#ee644c;stroke-width:1.465;stroke-linecap:butt;stroke-linejoin:miter;stroke-miterlimit:4;stroke-dasharray:none;stroke-opacity:1"
       d="m 57.007902,86.548082 c 0.05915,0.560765 0.03425,1.126001 -0.0051,1.687201 -0.03788,0.539701 -0.08931,1.079195 -0.08937,1.620718"
       id="path25953" />
  </g>
</svg>
