<?xml version="1.0" encoding="UTF-8" standalone="no"?>
<!-- Created with Inkscape (http://www.inkscape.org/) -->

<svg
   width="58.702572mm"
   height="66.195816mm"
   viewBox="0 0 58.702572 66.195816"
   version="1.1"
   id="svg43723"
   xmlns="http://www.w3.org/2000/svg"
   xmlns:svg="http://www.w3.org/2000/svg">
  <defs
     id="defs43720" />
  <g
     id="layer1"
     transform="translate(-121.67177,-89.090204)">
    <path
       style="fill:none;fill-opacity:1;stroke:#ee644c;stroke-width:5.29134;stroke-linecap:round;stroke-linejoin:round;stroke-miterlimit:4;stroke-dasharray:none"
       id="path7161"
       transform="matrix(0.26458333,0,0,0.26458333,100.98049,99.510933)"
       d="m 224.24675,-16.537677 c 24.49824,8.8660479 50.87094,35.09568 61.93975,58.363419 11.0688,23.267739 15.33497,56.15069 6.28255,80.243948 -9.05243,24.09325 -30.34109,53.48462 -53.96452,64.29295 -23.62343,10.80832 -60.27947,14.67641 -84.7366,6.40682 C 129.3108,184.49988 101.74857,160.35696 90.465291,137.09414 79.182011,113.83133 78.224083,77.89389 85.841205,53.414533 93.458326,28.935177 116.86285,2.7802796 140.35107,-7.9369453 163.83929,-18.65417 199.74852,-25.403724 224.24675,-16.537677 Z" />
    <path
       style="display:inline;fill:none;stroke:#ee644c;stroke-width:1.465;stroke-linecap:butt;stroke-linejoin:miter;stroke-miterlimit:4;stroke-dasharray:none;stroke-opacity:1"
       d="m 133.22847,93.977589 c -0.1954,3.222712 0.16698,6.444731 0.59192,9.634301 0.10461,0.78519 0.17079,1.57623 0.30622,2.35663 0.14062,0.81031 0.44169,1.58233 0.55747,2.39955 0.29149,2.05754 0.55303,4.13971 1.2444,6.11052 0.30103,0.85811 0.7151,1.67315 1.20919,2.43692 0.64847,1.00242 1.44774,1.91161 1.9964,2.97315 0.16377,0.31686 0.23776,0.684 0.49985,0.94905 0.43727,0.44221 0.78144,0.96213 1.14555,1.46656 0.39269,0.54402 0.91122,0.98176 1.43294,1.39612 1.73096,1.37475 3.65705,2.47714 5.43789,3.78186 0.2846,0.20851 0.60953,0.3825 0.82807,0.66217 0.015,0.0192 0.0291,0.0393 0.0381,0.0622"
       id="path7570" />
    <path
       style="display:inline;fill:none;stroke:#ee644c;stroke-width:1.465;stroke-linecap:round;stroke-linejoin:round;stroke-miterlimit:4;stroke-dasharray:none;stroke-opacity:1"
       d="m 153.43392,128.20657 c 2.02932,-0.92003 3.98197,-2.04172 5.691,-3.48599 0.30726,-0.25966 0.57638,-0.56094 0.88201,-0.82179 0.59718,-0.50968 1.34378,-0.85828 1.82333,-1.49249 0.1586,-0.20975 0.28812,-0.43916 0.45193,-0.64622 0.47377,-0.59886 1.08791,-1.07941 1.51671,-1.71285 0.4533,-0.66963 0.6852,-1.45326 1.09543,-2.14893 1.46587,-2.48584 2.57368,-5.20936 3.06555,-8.05439 0.20644,-1.19406 0.14518,-2.41814 0.40426,-3.60665 0.12426,-0.57004 0.22392,-1.14722 0.22751,-1.73461 0.009,-1.54832 0.0138,-3.11328 0.3282,-4.632452 0.0607,-0.293037 0.10028,-0.589849 0.0984,-0.890545 -0.004,-0.657413 -0.19984,-1.33996 0.006,-1.975216 0.0893,-0.275288 0.14657,-0.560179 0.16179,-0.849873 0.0336,-0.640295 -0.0388,-1.279822 -0.0279,-1.920373 0.004,-0.213908 -0.0631,-0.439825 0.006,-0.641984 0.0325,-0.09437 0.0282,-0.165854 -0.0657,-0.06725 -0.13564,0.142386 -0.24975,0.303171 -0.37712,0.452633"
       id="path7574" />
    <path
       style="display:inline;fill:none;stroke:#ee644c;stroke-width:1.465;stroke-linecap:round;stroke-linejoin:round;stroke-miterlimit:4;stroke-dasharray:none;stroke-opacity:1"
       d="m 148.51648,128.20657 c 0.21931,5.47312 0.46462,10.94595 0.51213,16.42498 0.01,1.13019 0.10483,2.27414 -0.11295,3.39176 -0.13286,0.68183 -0.43433,1.35762 -0.97732,1.81211 -0.31572,0.26426 -0.69788,0.44708 -1.10759,0.51398 -0.5975,0.0976 -1.24642,-0.013 -1.79874,0.26359 -0.71761,0.35933 -1.52887,0.42181 -2.29748,0.61263 -0.68063,0.16898 -1.38658,0.13057 -2.08127,0.13768 -0.60515,0.006 -1.22101,0.12688 -1.74567,0.43611 -0.25319,0.14923 -0.50931,0.2975 -0.74129,0.47806 -0.2204,0.17154 -0.45135,0.40572 -0.45365,0.69736 -0.002,0.24621 0.2342,0.39749 0.4366,0.47998 0.2878,0.11729 0.5878,0.20076 0.88772,0.28009 1.15978,0.30678 2.37225,0.15168 3.55046,0.32441 1.21634,0.17832 2.43601,0.3619 3.67028,0.36687 3.53866,0.0143 7.08653,0.30242 10.61869,-0.0435 0.8118,-0.0795 1.61085,-0.25058 2.4186,-0.36231 0.8691,-0.12022 1.75413,-0.0984 2.61749,-0.26462 0.52099,-0.10031 1.07182,-0.24622 1.45755,-0.63151 0.25598,-0.25569 0.39864,-0.62437 0.38295,-0.98515 -0.0124,-0.28472 -0.24051,-0.49365 -0.47556,-0.6207 -0.22167,-0.11982 -0.43194,-0.25989 -0.6576,-0.37211 -0.51627,-0.25675 -1.10525,-0.24622 -1.66372,-0.32389 -1.70365,-0.23694 -3.42123,-0.38786 -5.11062,-0.71474 -0.43465,-0.0841 -0.86483,-0.1899 -1.29256,-0.31124 -0.15739,-0.0446 -0.19504,-0.21412 -0.27185,-0.33717 -0.26352,-0.42218 -0.5273,-0.85006 -0.67145,-1.33278 -0.29598,-0.99119 -0.20277,-2.0344 -0.24779,-3.05339 -0.0256,-0.57882 -0.15226,-1.14567 -0.20595,-1.72199 -0.22018,-2.36369 0.0696,-4.73005 0.19131,-7.09013 0.0411,-0.79716 0.0181,-1.59578 0.0681,-2.39284 0.0996,-1.58849 0.31696,-3.16868 0.33959,-4.76273 0.004,-0.25637 0.0859,-0.52605 -0.008,-0.77276 -0.0483,-0.12678 -0.19485,-0.15114 -0.3129,-0.12602"
       id="path7582" />
    <path
       style="display:inline;fill:none;stroke:#ee644c;stroke-width:1.465;stroke-linecap:butt;stroke-linejoin:miter;stroke-miterlimit:4;stroke-dasharray:none;stroke-opacity:1"
       d="m 133.22847,93.977589 c 0.72206,-1.055657 1.80362,-1.819827 2.97373,-2.308886 1.60213,-0.669625 3.3383,-0.926147 5.0557,-1.088462 1.67663,-0.158462 3.35986,-0.235154 5.03449,-0.419862 1.78449,-0.196825 3.58033,-0.424879 5.37889,-0.30314 0.7657,0.05183 1.51864,0.206802 2.27509,0.328054 2.72133,0.436204 5.44153,0.883959 8.13944,1.454548 1.34869,0.285239 2.73961,0.396474 4.05459,0.814302 0.728,0.231318 1.28873,0.771459 2.00185,1.05268 0.27525,0.108546 0.56068,0.229827 0.76698,0.451961 0.10068,0.108406 0.068,0.259839 0.0141,0.385407 -0.25298,0.589297 -0.75285,1.030612 -1.27646,1.377162 -0.88577,0.58624 -1.87799,0.999254 -2.89534,1.291096 -1.10412,0.316732 -2.23528,0.535083 -3.37117,0.699505 -3.81098,0.551643 -7.68287,0.439445 -11.50892,0.111299 -1.73341,-0.148668 -3.45892,-0.372472 -5.18688,-0.572198 -2.43141,-0.281035 -4.877,-0.518947 -7.26545,-1.066053 -0.8826,-0.202171 -1.77413,-0.417037 -2.59205,-0.815169 -0.25319,-0.123243 -0.48406,-0.283448 -0.73986,-0.404268 -0.357,-0.168616 -0.70648,-0.350201 -1.06189,-0.528221 -0.13955,-0.0699 -0.19199,-0.254617 -0.0317,-0.35614 0.0726,-0.04599 0.15364,-0.07664 0.23485,-0.103615 z"
       id="path7586" />
    <path
       style="display:inline;fill:none;stroke:#ee644c;stroke-width:1.465;stroke-linecap:round;stroke-linejoin:round;stroke-miterlimit:4;stroke-dasharray:none;stroke-opacity:1"
       d="m 138.40533,106.3276 c 0.73806,2.29709 1.31649,4.64815 2.16964,6.90529 0.3648,0.96514 1.09737,1.74071 1.43918,2.71824 0.15441,0.4416 0.50378,0.77419 0.83718,1.08547 0.3124,0.29167 0.61956,0.59027 0.87792,0.93421 0.77674,1.03404 1.54815,2.09653 2.56314,2.91506 0.68452,0.55203 1.47927,0.95186 2.30662,1.24371 0.87755,0.30956 1.76656,0.61129 2.68829,0.74993 0.37895,0.057 0.76915,0.0999 1.15091,0.0271 0.14717,-0.0281 0.25453,-0.13348 0.3641,-0.229 0.51831,-0.45186 1.14131,-0.75488 1.72052,-1.11781 0.43712,-0.2739 0.8434,-0.60317 1.16622,-1.00841 0.35011,-0.4395 0.69877,-0.90505 0.86495,-1.44374 0.11318,-0.36688 0.37893,-0.65859 0.64342,-0.92487 0.23372,-0.23531 0.52587,-0.40794 0.75123,-0.65134 0.22726,-0.24545 0.40764,-0.52987 0.59189,-0.80788 0.56018,-0.84522 1.11877,-1.69234 1.63561,-2.56456 0.70103,-1.18305 1.36026,-2.39168 1.96291,-3.62755 0.43622,-0.89457 0.90252,-1.78561 1.17996,-2.7433 0.0834,-0.28792 0.13833,-0.58481 0.15311,-0.88945 0.008,-0.16014 -0.12989,-0.21902 -0.26985,-0.13107 -0.33858,0.21277 -0.62544,0.49604 -0.91184,0.77237 -0.41093,0.39649 -0.76715,0.84917 -1.19622,1.22555 -0.33672,0.29537 -0.75668,0.47561 -1.1733,0.62529 -0.99195,0.35638 -2.03198,0.58151 -3.08103,0.67021 -0.68552,0.058 -1.39388,0.11395 -2.06233,-0.0679 -0.44043,-0.1198 -0.86551,-0.29178 -1.28303,-0.47445 -2.02941,-0.88787 -3.84866,-2.16767 -5.74405,-3.29844 -0.58687,-0.35012 -1.15504,-0.74927 -1.79396,-0.99261 -0.55596,-0.21174 -1.16593,-0.11238 -1.73792,-0.25325 -0.82122,-0.20225 -1.69543,-0.24544 -2.51785,-0.0181 -0.98967,0.27356 -1.83655,0.88697 -2.80225,1.22365 -0.16209,0.0565 -0.32662,0.10606 -0.49317,0.14768 z"
       id="path15338" />
  </g>
</svg>
