<?xml version="1.0" encoding="UTF-8" standalone="no"?>
<!-- Created with Inkscape (http://www.inkscape.org/) -->

<svg
   width="90.848862mm"
   height="24.34285mm"
   viewBox="0 0 90.848862 24.34285"
   version="1.1"
   id="svg28306"
   xmlns="http://www.w3.org/2000/svg"
   xmlns:svg="http://www.w3.org/2000/svg">
  <defs
     id="defs28303" />
  <g
     id="layer1"
     transform="translate(-42.51947,-136.32858)">
    <path
       d="m 49.79987,151.9671 q -0.3048,0 -0.5969,-0.0762 -0.2921,-0.0635 -0.4318,-0.1524 -0.2286,-0.1651 -0.508,-0.4572 -0.2794,-0.3048 -0.4191,-0.5461 l -0.0254,-0.0127 q -0.1016,-0.1905 -0.1651,-0.4572 -0.0508,-0.2667 -0.0762,-0.5715 -0.1397,0.0508 -0.254,0.0889 -0.1143,0.0254 -0.1651,0.0254 h -0.0254 v -1.016 h 0.0254 q 0.0381,0 0.1651,-0.0381 0.1397,-0.0508 0.2921,-0.1016 0.0889,-0.6731 0.2794,-1.3462 0.1905,-0.6731 0.4445,-1.2065 0.2667,-0.5461 0.5334,-0.7874 0.1016,-0.0889 0.2286,-0.1397 0.127,-0.0508 0.3302,-0.1016 0.2159,-0.0381 0.3937,-0.0381 0.2794,0 0.5588,0.1905 0.2794,0.1778 0.5334,0.4445 0.254,0.254 0.4445,0.4826 0.3429,0.381 0.2286,0.6477 -0.0635,0.1651 -0.1905,0.2921 -0.1143,0.1143 -0.1778,0.1778 -0.5842,0.6731 -1.2573,1.1557 -0.6731,0.4699 -1.4605,0.9017 -0.0508,0.0254 -0.254,0.1143 0,0.2413 0.0254,0.381 0.0254,0.1397 0.0889,0.2794 -0.0127,0.0508 0.2032,0.2794 0.2286,0.2286 0.4826,0.4191 l 0.1016,0.0762 q 0.0635,0.0127 0.254,0.0381 0.1905,0.0254 0.3937,0.0254 h 0.2159 l 0.8128,-0.9144 0.5334,0.6477 -0.9398,1.0922 h 0.0127 q -0.1651,0.2032 -0.635,0.2032 z m -1.4605,-3.6322 q 0.4191,-0.1905 0.7874,-0.381 0.381,-0.2032 0.762,-0.508 0.381,-0.3175 0.8001,-0.8255 l 0.0127,-0.0254 q -0.1651,-0.1905 -0.4191,-0.3683 -0.2413,-0.1778 -0.4572,-0.1778 -0.0635,0 -0.1651,0.0127 -0.1016,0 -0.127,0.0127 -0.1651,0.0381 -0.2286,-0.0508 -0.0635,-0.1016 -0.0508,-0.1778 -0.2032,0.2032 -0.381,0.5969 -0.1778,0.3937 -0.3175,0.889 -0.127,0.4953 -0.2159,1.0033 z"
       style="font-size:12.7px;line-height:1.25;font-family:'Syne Tactile';-inkscape-font-specification:'Syne Tactile';fill:#ee644c;fill-opacity:1;stroke-width:0.264583"
       id="path40251" />
    <path
       d="m 53.139955,152.98691 q -0.2667,0 -0.5588,-0.1524 -0.2794,-0.1651 -0.4826,-0.3937 -0.1905,-0.2413 -0.1905,-0.4826 l 0.4064,-0.2159 q 0.2032,0.127 0.2794,0.2032 0.0762,0.0762 0.2921,0.0508 0.1778,-0.0254 0.2032,0 0.0381,0.0254 0.0254,0.0381 0.6604,-0.5334 0.6604,-1.3462 0,-0.0635 0,-0.1016 0,-0.0508 -0.0254,-0.127 -0.0254,-0.2159 -0.1524,-0.5715 -0.1143,-0.3683 -0.2159,-0.8001 -0.1016,-0.4445 -0.1016,-0.9017 0,-0.3175 0.0762,-0.6477 0.0889,-0.3429 0.2032,-0.508 0.2286,-0.3429 0.4318,-0.508 -0.1016,-0.1778 -0.1651,-0.3937 -0.0635,-0.2286 -0.0635,-0.4826 0,-0.1016 0.0127,-0.254 0.0254,-0.1524 0.0508,-0.2286 0.1016,-0.2921 0.2413,-0.4191 0.1524,-0.127 0.1016,-0.0762 0.2413,-0.1905 0.381,-0.2667 0.1524,-0.0889 0.3429,-0.1016 0.1905,-0.0254 0.5461,-0.0127 l 1.7653,0.0635 q 0.6604,-0.0127 0.9652,-0.1016 v -0.0127 q 0.0508,0 0.2794,-0.0889 0.2413,-0.0889 0.5334,-0.127 0.3048,-0.0381 0.5334,0.1143 0.317499,0.2032 0.253999,0.4826 -0.0635,0.2794 -0.533399,0.4318 h -0.0127 q -0.0762,0.0127 -0.1651,0.1905 -0.0889,0.1778 -0.1905,0.4191 -0.0889,0.2413 -0.1651,0.4572 -0.0635,0.2032 -0.1016,0.3048 -0.0889,0.2159 -0.1778,0.4318 -0.0889,0.2159 -0.1524,0.4318 h 1.3081 q 0.101599,0 0.228599,0.1524 0.127,0.1397 0.127,0.4318 l -0.355599,0.1778 h -0.5969 q -0.2413,0 -0.4826,0 -0.2413,0 -0.4953,-0.0127 l -0.1143,0.3429 q -0.1905,0.5461 -0.4572,1.1684 -0.254,0.6096 -0.4445,1.2065 -0.1905,0.5969 -0.1905,1.1049 0.4064,-0.2794 0.5334,-0.3937 0.127,-0.127 0.127,-0.1651 0,-0.0508 0.0127,-0.1016 0.0127,-0.0508 0.1778,-0.1905 0.2032,-0.1651 0.3683,-0.3048 0.1778,-0.1397 0.3175,-0.254 l 0.3937,0.381 q 0.2286,0 0.2159,0.1143 -0.0127,0.1016 -0.1016,0.2032 -0.0762,0.1016 -0.0889,0.1016 -0.1905,0.1524 -0.3556,0.2794 -0.1651,0.127 -0.3048,0.254 v -0.0127 q -0.0381,0.1143 -0.2286,0.3175 -0.1905,0.2032 -0.4318,0.4064 -0.2413,0.2032 -0.4445,0.3429 -0.1397,0.0889 -0.2667,0.1016 -0.1143,0 -0.1778,0.0254 -0.1651,0.0762 -0.2667,-0.1397 -0.0762,-0.2032 -0.127,-0.4445 -0.0381,-0.2413 -0.0381,-0.508 0,-0.6604 0.2032,-1.3716 0.2159,-0.7112 0.4826,-1.3589 0.2794,-0.6477 0.4572,-1.1049 -0.1016,0 -0.2159,0.0127 -0.1016,0 -0.2032,0 v -0.762 h 0.6731 q 0.1016,-0.3302 0.2159,-0.635 0.1143,-0.3175 0.2413,-0.6223 l 0.0889,-0.8001 -0.8509,0.127 -1.7653,-0.0635 q -0.3048,0 -0.4826,0.0127 -0.1651,0 -0.3556,0.1651 -0.0889,0.0508 -0.127,0.0762 -0.0254,0.0254 -0.0127,-0.0127 -0.0127,0.0381 -0.0127,0.1143 0,0.1524 0.1016,0.3048 0.1143,0.1524 0.2667,0.3048 h 0.2413 q 0.4699,0 0.7747,0.2667 0.3048,0.254 0.4191,0.6096 0.127,0.3429 0.0127,0.6096 l -0.8128,0.3302 q 0,-0.0127 -0.0762,-0.0635 -0.0635,-0.0635 -0.1651,-0.1778 -0.0381,-0.0381 -0.1397,-0.1524 -0.1016,-0.1143 -0.2794,-0.2794 -0.0127,-0.0254 -0.0508,-0.0381 -0.0254,-0.0254 -0.0635,-0.0508 -0.4191,0.0508 -0.5461,0.2794 -0.1651,0.2413 -0.1651,0.5969 0,0.4953 0.1905,1.0668 0.1905,0.5588 0.2794,1.0414 0.0127,0.0889 0.0127,0.1905 0.0127,0.1016 0.0127,0.2032 0,0.6223 -0.2667,1.2319 -0.254,0.5969 -0.6604,0.9271 -0.1778,0.1397 -0.3937,0.1397 z"
       style="font-size:12.7px;line-height:1.25;font-family:'Syne Tactile';-inkscape-font-specification:'Syne Tactile';fill:#ee644c;fill-opacity:1;stroke-width:0.264583"
       id="path40253" />
    <path
       d="m 60.099534,152.39993 q 0,-0.4826 0.1524,-0.7747 0.1524,-0.2921 0.2921,-0.4191 0.1524,-0.1397 0.1397,-0.1143 l 0.7239,0.6604 q -0.1905,0.3429 -0.3429,0.4699 -0.1397,0.127 -0.1397,0.1778 z"
       style="font-size:12.7px;line-height:1.25;font-family:'Syne Tactile';-inkscape-font-specification:'Syne Tactile';fill:#ee644c;fill-opacity:1;stroke-width:0.264583"
       id="path40255" />
    <path
       d="m 64.038936,147.91791 v -2.01081 h 4.593152 v 5.18581 h -2.539992 v -3.17499 z"
       style="font-weight:800;font-size:10.5833px;line-height:1.25;font-family:Syne;-inkscape-font-specification:'Syne Ultra-Bold';fill:#ee644c;fill-opacity:1;stroke-width:0.264583"
       id="path40257" />
    <path
       d="m 74.040147,149.79646 q -1.418163,0 -2.381243,-0.30692 -0.952497,-0.30692 -1.439329,-0.84666 -0.476248,-0.53975 -0.476248,-1.23825 0,-0.762 0.560915,-1.30175 0.560915,-0.53974 1.788577,-0.82549 1.238247,-0.29634 3.249073,-0.29634 2.010827,0 3.323157,0.24342 1.312329,0.24342 1.947327,0.75141 0.645581,0.49742 0.645581,1.30175 0,0.32808 -0.179916,0.68791 -0.179916,0.35984 -0.634998,0.77259 -0.04233,0.0423 -0.275166,0.24341 -0.232833,0.20108 -0.592665,0.49742 -0.349249,0.29633 -0.761997,0.63499 -0.412749,0.33867 -0.814914,0.67734 -0.402166,0.33866 -0.740831,0.61383 -0.328083,0.27516 -0.529165,0.4445 -0.201083,0.16933 -0.201083,0.16933 H 72.96065 l 6.699229,-4.74132 0.677331,-0.42333 q -0.825497,0.6985 -1.534579,1.24883 -0.709081,0.55033 -1.428745,0.93133 -0.709081,0.37041 -1.513412,0.5715 -0.804331,0.1905 -1.820327,0.1905 z m 1.301745,-3.06916 q -1.502828,0 -2.233076,0.15875 -0.719664,0.14816 -0.719664,0.5715 0,0.39158 0.719664,0.57149 0.730248,0.17992 2.233076,0.17992 1.502829,0 2.381243,-0.17992 0.888997,-0.17991 0.888997,-0.57149 0,-0.28575 -0.402165,-0.4445 -0.402166,-0.15875 -1.132413,-0.22225 -0.730248,-0.0635 -1.735662,-0.0635 z"
       style="font-weight:800;font-size:10.5833px;line-height:1.25;font-family:Syne;-inkscape-font-specification:'Syne Ultra-Bold';fill:#ee644c;fill-opacity:1;stroke-width:0.264583"
       id="path40259" />
    <path
       d="m 86.2956,149.79646 q -1.418162,0 -2.381243,-0.30692 -0.952497,-0.30692 -1.439328,-0.84666 -0.476249,-0.53975 -0.476249,-1.23825 0,-0.762 0.560915,-1.30175 0.560915,-0.53974 1.788578,-0.82549 1.238246,-0.29634 3.249073,-0.29634 2.010826,0 3.323156,0.24342 1.312329,0.24342 1.947327,0.75141 0.645581,0.49742 0.645581,1.30175 0,0.32808 -0.179916,0.68791 -0.179916,0.35984 -0.634998,0.77259 -0.04233,0.0423 -0.275166,0.24341 -0.232832,0.20108 -0.592665,0.49742 -0.349248,0.29633 -0.761997,0.63499 -0.412749,0.33867 -0.814914,0.67734 -0.402166,0.33866 -0.740831,0.61383 -0.328082,0.27516 -0.529165,0.4445 -0.201083,0.16933 -0.201083,0.16933 h -3.566572 l 6.699229,-4.74132 0.677331,-0.42333 q -0.825497,0.6985 -1.534578,1.24883 -0.709082,0.55033 -1.428746,0.93133 -0.709081,0.37041 -1.513412,0.5715 -0.804331,0.1905 -1.820327,0.1905 z m 1.301746,-3.06916 q -1.502829,0 -2.233077,0.15875 -0.719664,0.14816 -0.719664,0.5715 0,0.39158 0.719664,0.57149 0.730248,0.17992 2.233077,0.17992 1.502828,0 2.381242,-0.17992 0.888997,-0.17991 0.888997,-0.57149 0,-0.28575 -0.402165,-0.4445 -0.402166,-0.15875 -1.132413,-0.22225 -0.730248,-0.0635 -1.735661,-0.0635 z"
       style="font-weight:800;font-size:10.5833px;line-height:1.25;font-family:Syne;-inkscape-font-specification:'Syne Ultra-Bold';fill:#ee644c;fill-opacity:1;stroke-width:0.264583"
       id="path40261" />
    <path
       d="m 94.518814,147.12416 v -2.01082 H 105.2397 v 2.01082 l -5.34457,4.7625 h -3.460739 l 6.275899,-5.51391 0.28575,0.75141 z"
       style="font-weight:800;font-size:10.5833px;line-height:1.25;font-family:Syne;-inkscape-font-specification:'Syne Ultra-Bold';fill:#ee644c;fill-opacity:1;stroke-width:0.264583"
       id="path40263" />
    <path
       style="fill:none;fill-opacity:1;stroke:#ee644c;stroke-width:1.37953;stroke-linecap:round;stroke-linejoin:round;stroke-miterlimit:4;stroke-dasharray:none"
       id="path42477"
       d="m 467.69073,489.48721 -28.66645,-27.24544 17.05354,35.68271 -18.84411,-34.77037 5.19231,39.20611 -7.17718,-38.89174 -7.17718,38.89174 5.19231,-39.20611 -18.84411,34.77037 17.05354,-35.68271 -28.66645,27.24544 27.24544,-28.66645 -35.68272,17.05353 34.77038,-18.8441 -39.20611,5.1923 38.89173,-7.17717 -38.89173,-7.17718 39.20611,5.19231 -34.77038,-18.84411 35.68272,17.05354 -27.24544,-28.66645 28.66645,27.24544 -17.05354,-35.68272 18.84411,34.77037 -5.19231,-39.20611 7.17718,38.89174 7.17718,-38.89174 -5.19231,39.20611 18.84411,-34.77037 -17.05354,35.68272 28.66645,-27.24544 -27.24544,28.66645 35.68272,-17.05354 -34.77038,18.84411 39.20612,-5.19231 -38.89174,7.17718 38.89174,7.17717 -39.20612,-5.1923 34.77038,18.8441 -35.68272,-17.05353 z"
       transform="matrix(0.26458333,0,0,0.26458333,6.037318,27.573428)" />
    <rect
       style="fill:none;fill-opacity:1;stroke:#ee644c;stroke-width:0.447;stroke-linecap:square;stroke-linejoin:miter;stroke-miterlimit:4;stroke-dasharray:none"
       id="rect42581"
       width="83.378738"
       height="13.5441"
       x="42.74297"
       y="141.72795" />
  </g>
</svg>
