<svg width="49" height="24" viewBox="0 0 49 24" fill="none" xmlns="http://www.w3.org/2000/svg">
<path d="M41.616 23.242C40.824 23.242 39.878 23.132 38.778 22.912C37.678 22.692 36.644 22.472 35.676 22.252C34.752 21.988 34.158 21.834 33.894 21.79C32.354 21.394 30.66 20.734 28.812 19.81C26.964 18.842 25.116 17.808 23.268 16.708C20.98 18.292 18.45 19.568 15.678 20.536C12.906 21.46 10.2 21.9 7.55999 21.856C6.32799 21.812 5.13999 21.262 3.99599 20.206C2.85199 19.15 1.90599 17.808 1.15799 16.18C0.45399 14.508 0.10199 12.792 0.10199 11.032C0.10199 9.66797 0.36599 8.50197 0.89399 7.53397C2.30199 4.93797 4.36999 3.63997 7.09799 3.63997C8.72599 3.63997 10.376 4.03597 12.048 4.82797C13.72 5.61997 15.172 6.38997 16.404 7.13797C17.372 7.70997 18.428 8.36997 19.572 9.11797C20.716 9.86597 21.904 10.636 23.136 11.428C24.676 10.152 25.776 8.89797 26.436 7.66597L29.538 9.90997C29.23 10.57 28.834 11.208 28.35 11.824C27.91 12.396 27.404 12.99 26.832 13.606C28.24 14.398 29.626 15.124 30.99 15.784C32.354 16.4 33.63 16.884 34.818 17.236C35.082 17.28 35.61 17.412 36.402 17.632C37.238 17.852 38.14 18.05 39.108 18.226C40.076 18.402 40.912 18.49 41.616 18.49C41.836 18.49 41.968 18.49 42.012 18.49C42.1 18.446 42.1 18.468 42.012 18.556C44.212 17.324 45.312 15.146 45.312 12.022C45.312 9.33797 44.498 7.29197 42.87 5.88397C42.122 5.22397 40.89 4.89397 39.174 4.89397C38.03 4.89397 36.71 5.09197 35.214 5.48797C33.762 5.83997 32.376 6.32397 31.056 6.93997C29.78 7.51197 28.768 8.12797 28.02 8.78797L25.644 5.22397C26.744 4.25597 28.064 3.39797 29.604 2.64997C31.144 1.90197 32.75 1.30797 34.422 0.867966C36.138 0.383967 37.722 0.141968 39.174 0.141968C41.594 0.141968 43.618 0.867968 45.246 2.31997C46.346 3.28797 47.226 4.67397 47.886 6.47797C48.546 8.23797 48.876 10.086 48.876 12.022C48.876 14.31 48.392 16.444 47.424 18.424C46.5 20.404 45.246 21.834 43.662 22.714C43.002 23.066 42.32 23.242 41.616 23.242ZM7.62599 17.104C9.42999 17.148 11.344 16.884 13.368 16.312C15.392 15.74 17.306 14.992 19.11 14.068C18.274 13.54 17.46 13.034 16.668 12.55C15.92 12.022 15.216 11.56 14.556 11.164C11.52 9.31597 9.03399 8.39197 7.09799 8.39197C5.55799 8.39197 4.52399 8.89797 3.99599 9.90997C3.86399 10.13 3.77599 10.284 3.73199 10.372C3.68799 10.46 3.66599 10.68 3.66599 11.032C3.66599 12 3.86399 12.946 4.25999 13.87C4.65599 14.794 5.16199 15.564 5.77799 16.18C6.39399 16.796 7.00999 17.104 7.62599 17.104Z" fill="white"/>
</svg>
