<?xml version="1.0" encoding="UTF-8" standalone="no"?>
<svg
   width="146"
   height="146"
   viewBox="0 0 146 146"
   fill="none"
   version="1.1"
   id="svg40"
   xmlns="http://www.w3.org/2000/svg"
   xmlns:svg="http://www.w3.org/2000/svg">
  <defs
     id="defs44" />
  <path
     d="M54.226 14.9598L58.7226 14.1312C58.9775 14.4489 59.3819 14.6269 59.9359 14.665C60.5035 14.7007 61.2892 14.6261 62.293 14.4411C63.0661 14.2986 63.6283 14.153 63.9796 14.0041C64.3444 13.8527 64.5685 13.6992 64.6521 13.5436C64.7492 13.3854 64.784 13.2318 64.7565 13.0825C64.714 12.8519 64.5564 12.7197 64.2836 12.6858C64.022 12.6358 63.5915 12.659 62.9922 12.7555C62.3903 12.8383 61.5672 12.976 60.5227 13.1684C59.5325 13.3509 58.6366 13.4739 57.8348 13.5375C57.0442 13.585 56.36 13.5638 55.7825 13.4738C55.2024 13.3703 54.7375 13.1685 54.3876 12.8683C54.0378 12.5681 53.8141 12.1535 53.7167 11.6244C53.5967 10.9733 53.707 10.392 54.0475 9.88044C54.3855 9.35532 54.8915 8.90444 55.5654 8.52781C56.2368 8.13761 57.0305 7.80202 57.9465 7.52104C58.876 7.23756 59.8562 7.00085 60.8871 6.81089C62.5962 6.49597 64.0258 6.41487 65.176 6.56761C66.3236 6.70677 67.2089 7.02051 67.8318 7.50882C68.4547 7.99713 68.8269 8.60879 68.9483 9.34379L64.5737 10.1498C64.3596 9.82466 64.0297 9.63298 63.5842 9.57481C63.1523 9.51414 62.4345 9.57629 61.4307 9.76124C60.4812 9.9362 59.8031 10.1383 59.3966 10.3675C59.0011 10.5806 58.8321 10.8432 58.8895 11.1552C58.927 11.3586 59.0575 11.4959 59.281 11.5669C59.5155 11.6219 59.9281 11.616 60.5189 11.5492C61.1232 11.4799 61.9951 11.3403 63.1345 11.1303C63.9213 10.9854 64.6926 10.8713 65.4487 10.7881C66.2183 10.7024 66.9178 10.6927 67.5471 10.7591C68.19 10.8229 68.7215 11.0055 69.1417 11.3068C69.5618 11.608 69.8306 12.0774 69.9481 12.715C70.0906 13.4882 69.888 14.1777 69.3405 14.7835C68.804 15.3732 67.9792 15.8828 66.8662 16.3123C65.7533 16.7418 64.41 17.1015 62.8366 17.3915C61.4666 17.6439 60.2905 17.7694 59.3085 17.768C58.3401 17.7642 57.5312 17.6748 56.8819 17.4999C56.2301 17.3114 55.7102 17.0776 55.3221 16.7985C54.9452 16.5033 54.6712 16.1961 54.5002 15.877C54.3403 15.5418 54.2489 15.2361 54.226 14.9598Z"
     fill="#EE644C"
     id="path2" />
  <path
     d="M91.6821 13.87C91.5343 14.852 91.1011 15.6447 90.3827 16.2479C89.6642 16.8511 88.6158 17.2373 87.2373 17.4064C85.8589 17.5755 84.1127 17.5009 81.9986 17.1827C79.8846 16.8645 78.1099 16.423 76.6745 15.8582C75.2528 15.2955 74.2118 14.5669 73.5514 13.6724C72.9046 12.78 72.6787 11.6859 72.8738 10.3901C73.0688 9.09436 73.6067 8.11525 74.4876 7.45277C75.3841 6.7787 76.5945 6.38205 78.1188 6.26279C79.6589 6.13196 81.4859 6.22565 83.6 6.54389C85.714 6.86212 87.398 7.30392 88.652 7.86928C89.9059 8.43465 90.7874 9.11134 91.2964 9.89934C91.8055 10.6873 91.9939 11.5666 91.8618 12.537L87.3609 11.8595C87.2228 11.2947 86.7933 10.8116 86.0727 10.4102C85.354 9.99517 84.381 9.69526 83.1535 9.51048C82.1578 9.3606 81.2804 9.30525 80.5213 9.34442C79.7643 9.36994 79.1555 9.5224 78.695 9.8018C78.2482 10.0832 77.9785 10.5309 77.8861 11.1446C77.7958 11.7448 77.9228 12.2451 78.267 12.6456C78.6112 13.0462 79.1413 13.3701 79.8572 13.6173C80.5732 13.8646 81.4359 14.0642 82.4451 14.2161C83.6727 14.4009 84.6899 14.4076 85.4968 14.2361C86.3194 14.0531 86.8808 13.7052 87.1812 13.1924L91.6821 13.87Z"
     fill="#EE644C"
     id="path4" />
  <path
     d="M97.0177 10.1757L101.536 12.2613L97.2784 21.4868L92.7599 19.4013L97.0177 10.1757ZM104.786 17.9863C103.97 17.6098 103.189 17.3404 102.441 17.1782C101.694 17.016 101.033 16.9315 100.457 16.9247C99.8876 16.9054 99.4372 16.9412 99.1061 17.0319L99.4855 16.1108C99.6448 15.8646 99.8871 15.6034 100.213 15.3273C100.544 15.0386 100.934 14.7697 101.384 14.5206C101.84 14.2589 102.344 14.0576 102.896 13.9167C103.454 13.7631 104.037 13.7047 104.644 13.7414C105.27 13.7713 105.896 13.9311 106.524 14.2208L104.786 17.9863Z"
     fill="#EE644C"
     id="path6" />
  <path
     d="M110.627 31.1578C108.982 29.6884 107.732 28.3294 106.876 27.0809C106.03 25.8416 105.596 24.6822 105.574 23.6028C105.563 22.5325 105.987 21.5164 106.847 20.5543C107.706 19.5923 108.668 19.0567 109.733 18.9476C110.817 18.8374 112.022 19.1329 113.349 19.8343C114.695 20.5346 116.19 21.6194 117.835 23.0888C119.47 24.5489 120.7 25.8992 121.526 27.1396C122.372 28.3789 122.796 29.5389 122.798 30.6194C122.809 31.6896 122.385 32.7058 121.526 33.6678C120.666 34.6299 119.704 35.1655 118.64 35.2746C117.575 35.3837 116.379 35.0876 115.053 34.3862C113.737 33.6941 112.262 32.6179 110.627 31.1578ZM112.637 28.9078C113.402 29.5916 114.099 30.1025 114.727 30.4405C115.365 30.7681 115.933 30.9227 116.433 30.9043C116.943 30.8756 117.373 30.6647 117.724 30.2716C118.075 29.8785 118.236 29.4274 118.208 28.9181C118.189 28.4181 117.982 27.8698 117.585 27.2733C117.187 26.6767 116.601 26.0319 115.825 25.3388C115.06 24.6549 114.348 24.14 113.69 23.7939C113.042 23.4571 112.459 23.2984 111.939 23.3178C111.439 23.3362 111.009 23.5471 110.648 23.9505C110.297 24.3436 110.136 24.7948 110.165 25.3041C110.203 25.803 110.425 26.3553 110.833 26.9611C111.26 27.5658 111.861 28.2147 112.637 28.9078Z"
     fill="#EE644C"
     id="path8" />
  <path
     d="M130.908 31.8272L133.639 35.9486L121.791 43.8004L119.06 39.679L130.908 31.8272Z"
     fill="#EE644C"
     id="path10" />
  <path
     d="M136.495 40.7378L138.596 45.237L125.661 51.2771L123.56 46.7779L136.495 40.7378Z"
     fill="#EE644C"
     id="path12" />
  <path
     d="M138.403 59.5924L139.763 72.6391L136.677 72.9608L135.317 59.9141L138.403 59.5924ZM144.001 67.3922L144.496 72.1458L141.204 72.4889L140.923 69.7932C140.879 69.243 140.807 68.8206 140.707 68.5259C140.609 68.2449 140.45 68.0535 140.232 67.9514C140.014 67.8631 139.693 67.8411 139.268 67.8855L129.802 68.872L129.287 63.9332L139.782 62.8394C140.605 62.7537 141.307 62.8331 141.887 63.0777C142.469 63.336 142.934 63.8076 143.282 64.4924C143.633 65.1909 143.872 66.1575 144.001 67.3922Z"
     fill="#EE644C"
     id="path14" />
  <path
     d="M128.434 84.6304C128.878 82.4827 129.424 80.7293 130.071 79.3701C130.715 78.0244 131.496 77.0732 132.414 76.5164C133.329 75.9732 134.415 75.8314 135.671 76.0911C136.927 76.3508 137.868 76.9114 138.492 77.773C139.128 78.6508 139.474 79.8352 139.532 81.3261C139.601 82.8333 139.414 84.6608 138.97 86.8085C138.528 88.9427 137.98 90.6744 137.325 92.0038C136.681 93.3495 135.894 94.2926 134.966 94.833C134.051 95.3763 132.965 95.518 131.709 95.2583C130.453 94.9987 129.512 94.438 128.887 93.5765C128.263 92.7149 127.921 91.5387 127.863 90.0478C127.803 88.5704 127.993 86.7646 128.434 84.6304ZM131.372 85.2378C131.165 86.2373 131.073 87.0915 131.096 87.8004C131.132 88.5121 131.282 89.0784 131.547 89.4995C131.826 89.9233 132.222 90.1882 132.735 90.2943C133.248 90.4004 133.717 90.3142 134.141 90.0356C134.562 89.7705 134.93 89.3184 135.245 88.6793C135.56 88.0403 135.822 87.2142 136.032 86.2011C136.238 85.2016 136.327 84.3324 136.296 83.5937C136.263 82.8686 136.108 82.2873 135.833 81.85C135.568 81.429 135.172 81.164 134.645 81.0551C134.132 80.949 133.663 81.0353 133.239 81.3139C132.829 81.5953 132.465 82.0622 132.147 82.7148C131.84 83.3837 131.581 84.2247 131.372 85.2378Z"
     fill="#EE644C"
     id="path16" />
  <path
     d="M134.323 100.688L131.956 105.053L123.045 100.22L125.412 95.8547L134.323 100.688ZM126.047 107.92C126.475 107.132 126.793 106.371 127.003 105.638C127.212 104.904 127.339 104.251 127.383 103.678C127.438 103.112 127.432 102.662 127.363 102.326L128.255 102.763C128.49 102.938 128.735 103.196 128.989 103.537C129.255 103.886 129.498 104.292 129.717 104.756C129.948 105.226 130.116 105.741 130.221 106.3C130.338 106.866 130.358 107.45 130.283 108.052C130.213 108.673 130.013 109.287 129.685 109.893L126.047 107.92Z"
     fill="#EE644C"
     id="path18" />
  <path
     d="M121.62 121.858L117.4 124.44L112.128 115.823L116.349 113.241L121.62 121.858ZM111.23 128.577C110.539 129 109.824 129.333 109.086 129.575C108.355 129.829 107.63 129.934 106.91 129.891C106.179 129.854 105.475 129.625 104.797 129.202C104.119 128.778 103.497 128.104 102.931 127.178L100.381 123.01L104.601 120.428L106.828 124.068C107.366 124.947 107.975 125.429 108.655 125.512C109.341 125.608 110.283 125.29 111.478 124.558C112.112 124.171 112.684 123.724 113.196 123.217C113.696 122.718 114.12 122.225 114.467 121.739C114.821 121.265 115.075 120.851 115.23 120.499L115.674 121.145C115.756 121.385 115.777 121.775 115.737 122.315C115.693 122.874 115.525 123.509 115.234 124.218C114.943 124.928 114.482 125.661 113.849 126.419C113.205 127.183 112.332 127.903 111.23 128.577ZM99.694 135.635C99.0023 136.058 98.2875 136.391 97.5494 136.633C96.8185 136.886 96.0935 136.992 95.3742 136.948C94.6432 136.912 93.9388 136.683 93.261 136.259C92.5832 135.836 91.961 135.162 91.3944 134.235L88.8447 130.067L93.0652 127.485L95.2922 131.126C95.8301 132.005 96.4389 132.486 97.1184 132.57C97.8052 132.666 98.7465 132.348 99.9423 131.616C100.575 131.229 101.148 130.782 101.66 130.275C102.16 129.776 102.583 129.283 102.93 128.797C103.285 128.322 103.539 127.909 103.694 127.556L104.246 128.379C104.306 128.584 104.292 128.955 104.202 129.493C104.113 130.031 103.907 130.657 103.585 131.369C103.252 132.088 102.775 132.823 102.155 133.573C101.523 134.331 100.702 135.018 99.694 135.635Z"
     fill="#EE644C"
     id="path20" />
  <path
     d="M77.0572 129.557C79.2502 129.404 81.0903 129.455 82.5774 129.711C84.0508 129.968 85.1805 130.465 85.9665 131.2C86.7388 131.936 87.1698 132.945 87.2596 134.228C87.3494 135.511 87.0632 136.57 86.401 137.407C85.726 138.258 84.6769 138.913 83.2538 139.373C81.8178 139.848 80.0033 140.162 77.8102 140.316C75.631 140.468 73.8111 140.409 72.3506 140.137C70.8772 139.879 69.754 139.376 68.9807 138.626C68.2085 137.89 67.7775 136.881 67.6877 135.598C67.5979 134.315 67.8841 133.256 68.5463 132.419C69.2085 131.583 70.2511 130.934 71.6743 130.474C73.0836 130.015 74.8779 129.71 77.0572 129.557ZM77.2672 132.557C76.2465 132.629 75.3971 132.771 74.7191 132.985C74.042 133.213 73.5362 133.511 73.2017 133.881C72.8682 134.265 72.7198 134.719 72.7565 135.243C72.7932 135.767 73.0034 136.196 73.3871 136.53C73.757 136.864 74.2931 137.097 74.9953 137.228C75.6975 137.359 76.5658 137.388 77.6002 137.316C78.6209 137.244 79.4836 137.094 80.1882 136.864C80.8791 136.636 81.3982 136.329 81.7455 135.944C82.08 135.574 82.2284 135.121 82.1907 134.583C82.1541 134.058 81.9439 133.63 81.5601 133.296C81.1774 132.976 80.628 132.752 79.9121 132.621C79.1832 132.506 78.3016 132.485 77.2672 132.557Z"
     fill="#EE644C"
     id="path22" />
  <path
     d="M63.1799 139.706L58.3138 138.614L60.5441 128.679L65.4102 129.771L63.1799 139.706ZM53.9248 133.688C54.8034 133.886 55.6259 133.985 56.3922 133.987C57.1585 133.988 57.8243 133.932 58.3895 133.817C58.9517 133.716 59.3855 133.587 59.6909 133.428L59.513 134.41C59.4087 134.685 59.2262 134.992 58.9655 135.331C58.7018 135.684 58.3758 136.029 57.9874 136.368C57.5959 136.72 57.1445 137.024 56.633 137.278C56.1186 137.546 55.56 137.726 54.9572 137.818C54.3379 137.92 53.6904 137.895 53.0145 137.744L53.9248 133.688Z"
     fill="#EE644C"
     id="path24" />
  <path
     d="M39.6021 123.779L35.3346 121.406C35.8318 120.767 36.5198 120.353 37.3987 120.163C38.2655 119.966 39.3399 120.035 40.6219 120.369C41.8851 120.708 43.3786 121.357 45.1025 122.315C46.9229 123.327 48.4156 124.346 49.5809 125.373C50.7341 126.393 51.4753 127.444 51.8046 128.526C52.1338 129.609 51.9734 130.735 51.3234 131.904C50.68 133.062 49.8238 133.793 48.7546 134.098C47.6667 134.409 46.382 134.349 44.9005 133.92C43.4189 133.491 41.7438 132.757 39.8753 131.718C38.0429 130.7 36.6325 129.703 35.6441 128.727C34.6557 127.751 34.0886 126.742 33.9428 125.698C33.7904 124.667 34.0714 123.537 34.7857 122.308L47.0821 129.144C47.196 128.797 47.1881 128.414 47.0583 127.995C46.9164 127.569 46.597 127.107 46.1001 126.61C45.5845 126.118 44.8263 125.594 43.8258 125.038C42.789 124.461 41.8989 124.061 41.1554 123.837C40.3999 123.607 39.8822 123.587 39.6021 123.779ZM41.5137 129.197C42.7916 129.907 43.8451 130.311 44.6743 130.409C45.4915 130.501 46.0374 130.441 46.3121 130.231L38.3557 125.808C38.2658 126.168 38.4459 126.639 38.8959 127.221C39.3391 127.814 40.2117 128.473 41.5137 129.197Z"
     fill="#EE644C"
     id="path26" />
  <path
     d="M14.9834 116.526L17.4041 114.571L20.7147 118.67L18.2941 120.625L14.9834 116.526ZM22.3502 117.162L19.222 113.289L27.1294 106.902L30.2576 110.775L22.3502 117.162Z"
     fill="#EE644C"
     id="path28" />
  <path
     d="M15.7784 109.225L13.7327 104.7L22.9701 100.524L25.0158 105.048L15.7784 109.225ZM10.3814 98.0415C10.0462 97.3 9.80394 96.5466 9.65479 95.7815C9.49306 95.0221 9.47854 94.2869 9.61123 93.576C9.73823 92.8525 10.0546 92.1796 10.5604 91.5574C11.0662 90.9351 11.8155 90.3995 12.8084 89.9505L17.2762 87.9304L19.3219 92.4549L15.4196 94.2194C14.477 94.6456 13.9217 95.1918 13.7538 95.8582C13.5732 96.5302 13.7727 97.5071 14.3523 98.7891C14.6592 99.4678 15.0329 100.094 15.4736 100.666C15.9085 101.227 16.3464 101.71 16.7874 102.116C17.2158 102.528 17.5959 102.833 17.9276 103.031L17.2283 103.392C16.9794 103.444 16.5885 103.417 16.0556 103.31C15.5045 103.195 14.8937 102.949 14.2233 102.571C13.5528 102.193 12.8798 101.642 12.2044 100.918C11.5232 100.182 10.9156 99.2229 10.3814 98.0415Z"
     fill="#EE644C"
     id="path30" />
  <path
     d="M7.90105 87.3952L6.32704 74.4091L9.39936 74.0367L10.9734 87.0228L7.90105 87.3952ZM2.18964 79.7116L1.61614 74.9801L4.89329 74.5829L5.21852 77.2661C5.27107 77.814 5.34969 78.234 5.45437 78.5261C5.5574 78.8046 5.71878 78.9929 5.9385 79.091C6.15656 79.1754 6.47724 79.1919 6.90054 79.1406L16.3223 77.9986L16.9182 82.9144L6.47227 84.1806C5.65298 84.2799 4.95204 84.2125 4.36943 83.9783C3.78518 83.7304 3.31347 83.268 2.95431 82.591C2.59349 81.9004 2.3386 80.9406 2.18964 79.7116Z"
     fill="#EE644C"
     id="path32" />
  <path
     d="M17.476 62.1937C17.0587 64.3467 16.5349 66.1068 15.9046 67.4739C15.277 68.8275 14.5077 69.7883 13.5968 70.3564C12.6885 70.9109 11.6047 71.0661 10.3454 70.822C9.08609 70.5779 8.13878 70.029 7.50344 69.1752C6.85719 68.3053 6.49583 67.1253 6.41936 65.6352C6.33198 64.129 6.49696 62.2994 6.91428 60.1463C7.32898 58.0068 7.85562 56.2684 8.49418 54.931C9.12183 53.5774 9.89658 52.6247 10.8184 52.0728C11.7267 51.5182 12.8105 51.363 14.0698 51.6071C15.3291 51.8512 16.2764 52.4001 16.9117 53.2539C17.5471 54.1077 17.903 55.2796 17.9794 56.7696C18.0585 58.2461 17.8907 60.0542 17.476 62.1937ZM14.5309 61.6228C14.7252 60.6207 14.8066 59.7654 14.7754 59.0569C14.7306 58.3457 14.5731 57.7813 14.3028 57.3636C14.019 56.9433 13.6198 56.6832 13.1052 56.5835C12.5907 56.4837 12.1233 56.5758 11.703 56.8596C11.2853 57.1299 10.9228 57.5865 10.6156 58.2294C10.3083 58.8724 10.0562 59.7016 9.85938 60.7172C9.66516 61.7193 9.58782 62.5894 9.62736 63.3277C9.66953 64.0524 9.83121 64.6317 10.1124 65.0655C10.3827 65.4832 10.7819 65.7433 11.3099 65.8456C11.8245 65.9454 12.2919 65.8533 12.7122 65.5695C13.119 65.283 13.4773 64.8116 13.7872 64.1551C14.0862 63.4825 14.3341 62.6383 14.5309 61.6228Z"
     fill="#EE644C"
     id="path34" />
  <path
     d="M33.3884 31.636L30.6419 31.8392L30.5227 28.7091L29.4439 29.9693L23.1604 36.5262L21.1451 34.5947L27.4285 28.0379L28.6417 26.9064L25.5358 26.9199L25.5822 24.1548L32.9814 24.2606L33.3884 31.636Z"
     fill="#EE644C"
     id="path36" />
  <path
     d="M73.0228 59.0843L82.0733 39.2939L80.0166 60.9581L97.7492 48.3447L85.1361 66.0782L106.8 64.021L87.0103 73.0722L106.8 82.1229L85.1361 80.0661L97.7492 97.7993L80.0166 85.1858L82.0733 106.85L73.0228 87.0601L63.9724 106.85L66.0291 85.1858L48.2961 97.7993L60.9092 80.0661L39.2456 82.1229L59.0354 73.0722L39.2456 64.021L60.9092 66.0782L48.2961 48.3447L66.0291 60.9581L63.9724 39.2939L73.0228 59.0843Z"
     fill="#EE644C"
     id="path38" />
</svg>
