<svg width="248" height="248" viewBox="0 0 248 248" fill="none" xmlns="http://www.w3.org/2000/svg">
<path d="M124 98.9075L143.628 0L131.774 100.139L180.958 12.1614L138.778 103.68L212.747 35.2526L144.32 109.222L235.839 66.9646L147.861 116.226L248 104.372L149.092 124L248 143.628L147.861 131.774L235.839 180.958L144.32 138.778L212.747 212.747L138.778 144.32L180.958 235.839L131.774 147.861L143.628 248L124 149.092L104.372 248L116.226 147.861L66.9646 235.839L109.222 144.32L35.2526 212.747L103.68 138.778L12.1614 180.958L100.139 131.774L0 143.628L98.9075 124L0 104.372L100.139 116.226L12.1614 66.9646L103.68 109.222L35.2526 35.2526L109.222 103.68L66.9646 12.1614L116.226 100.139L104.372 0L124 98.9075Z" fill="#EC644C"/>
<circle cx="124.5" cy="123.5" r="93" stroke="#EE644C"/>
</svg>
