<?xml version="1.0" encoding="UTF-8" standalone="no"?>
<!-- Created with Inkscape (http://www.inkscape.org/) -->

<svg
   width="813.22864"
   height="802.67389"
   viewBox="0 0 813.22864 802.67389"
   version="1.1"
   id="svg5"
   xmlns="http://www.w3.org/2000/svg"
   xmlns:svg="http://www.w3.org/2000/svg">
  <defs
     id="defs2" />
  <g
     id="layer3"
     style="display:none">
    <g
       id="layer1"
       transform="translate(-553.3857,-189.41169)">
      <g
         id="g3015">
        <path
           style="fill:none;fill-opacity:1;stroke:#ee644c;stroke-width:9.1;stroke-miterlimit:4;stroke-dasharray:none;stroke-opacity:1"
           id="path2410"
           d="M 1358.7335,889.13832 H 561.26653 L 960,198.51169 Z" />
      </g>
    </g>
  </g>
  <g
     id="layer4"
     style="display:inline">
    <path
       style="fill:#ee644c;fill-opacity:1;fill-rule:evenodd;stroke:none;stroke-width:1;stroke-miterlimit:4;stroke-dasharray:none;stroke-opacity:1"
       id="path35"
       d="m -652.06543,438.5703 c 53.31592,-78.98655 -260.12338,-149.92902 -191.55031,-216.10453 68.57307,-66.1755 128.32019,249.58914 209.15344,199.11687 80.83325,-50.47227 -176.6529,-242.76869 -87.09228,-275.33184 89.56062,-32.56316 15.70928,280.20354 110.08305,266.97267 94.37377,-13.23087 -62.63754,-293.63144 32.42479,-286.95177 95.06233,6.67967 -99.61791,262.36822 -8.0217,288.66649 91.59621,26.29826 62.20843,-293.72266 146.33532,-248.95514 84.12689,44.76751 -197.72025,199.16704 -124.73942,260.44724 72.98083,61.28019 176.29799,-243.02655 234.94314,-167.91191 58.64516,75.11465 -261.63497,101.52808 -219.88857,187.1943 41.74641,85.66622 259.90404,-150.30894 282.92717,-57.83517 23.02313,92.47378 -280.31063,-13.66601 -277.01699,81.57377 3.29365,95.23978 298.57031,-31.60156 281.99052,62.24179 -16.5798,93.84335 -250.51804,-126.49714 -286.24665,-38.15162 -35.72862,88.34551 285.61105,92.57002 232.29513,171.55658 -53.31592,78.98655 -177.40859,-217.45575 -245.98166,-151.28024 -68.57307,66.17551 223.26706,200.73541 142.43381,251.20768 -80.83324,50.47226 -73.62359,-270.81429 -163.18421,-238.25114 -89.56062,32.56316 122.31817,274.19182 27.9444,287.42269 -94.37377,13.23087 42.89159,-277.34657 -52.17073,-284.02624 -95.06233,-6.67966 0.21934,300.23797 -91.37686,273.9397 -91.59621,-26.29827 151.99043,-235.92312 67.86354,-280.69063 -84.12689,-44.76751 -121.9174,274.37025 -194.89823,213.09005 -72.98082,-61.2802 234.80875,-153.70641 176.1636,-228.82106 -58.64515,-75.11464 -222.97352,201.06142 -264.71992,115.3952 -41.74641,-85.66622 277.02649,-44.91247 254.00336,-137.38625 -23.02314,-92.47377 -285.4755,92.98725 -288.76914,-2.25253 -3.29364,-95.23978 271.34385,71.64724 287.92364,-22.19611 16.57979,-93.84335 -298.61616,-31.16527 -262.88755,-119.51079 35.72862,-88.34551 218.74338,175.8185 272.05931,96.83194 z"
       transform="rotate(-4.2369069,-213.20712,-13182.06)" />
  </g>
</svg>
